<svg width="14" height="12" viewBox="0 0 14 12" fill="none" xmlns="http://www.w3.org/2000/svg">
<path fill-rule="evenodd" clip-rule="evenodd" d="M7.29289 11.7071C6.90237 11.3166 6.90237 10.6834 7.29289 10.2929L10.5858 7L1 7C0.447715 7 4.76254e-07 6.55228 5.24537e-07 6C5.72819e-07 5.44771 0.447715 5 1 5L10.5858 5L7.29289 1.70711C6.90237 1.31658 6.90237 0.683417 7.29289 0.292893C7.68342 -0.097632 8.31658 -0.097632 8.70711 0.292893L13.7071 5.29289C14.0976 5.68342 14.0976 6.31658 13.7071 6.70711L8.70711 11.7071C8.31658 12.0976 7.68342 12.0976 7.29289 11.7071Z" fill="white"/>
</svg>
