<svg xmlns="http://www.w3.org/2000/svg" width="199" height="40" viewBox="0 0 199 40"><defs><style>.cls-1{fill:#e9327c;}.cls-2{fill:#1dace3;}.cls-3{fill:#001a49;}</style></defs><g id="Layer_2" data-name="Layer 2"><g id="Layer_1-2" data-name="Layer 1"><path class="cls-1" d="M28.26,33.11,1.58,14.64C-1.12,12.77-.2,8.88,3.17,8L31.53.24A4,4,0,0,1,33.4,0a4,4,0,0,1,1.77.68,4.17,4.17,0,0,1,1.26,1.41A4.09,4.09,0,0,1,36.9,4L35.22,30.14c-.2,3.11-4.25,4.84-7,3Z"/><path class="cls-2" d="M19.8,37.66,4.08,6.83a4.23,4.23,0,0,1-.45-2.29,4.23,4.23,0,0,1,.8-2.19A4.31,4.31,0,0,1,6.25.9,4.21,4.21,0,0,1,8.55.62L37.69,5.13a4.19,4.19,0,0,1,1.85.76,4.39,4.39,0,0,1,1.31,1.53,4.32,4.32,0,0,1,0,3.92L27.43,37.67a4.28,4.28,0,0,1-7.63,0Z"/><path class="cls-3" d="M36.83,5,22.31,2.75,4.48,7.6l7.12,14L28.26,33.11a4.41,4.41,0,0,0,1.2.57l6.33-12.42ZM110.39,8.6a2.74,2.74,0,0,1,.46-1.52,2.79,2.79,0,0,1,1.22-1,2.77,2.77,0,0,1,3,.59,2.81,2.81,0,0,1,.75,1.41,2.75,2.75,0,0,1-1.17,2.81,2.69,2.69,0,0,1-1.51.46,2.77,2.77,0,0,1-2.73-2.74Zm.45,4.08h4.55V27.89h-4.55Zm24.2,7.6a7.63,7.63,0,0,1-.43,3,7.47,7.47,0,0,1-1.53,2.57,7.63,7.63,0,0,1-2.39,1.78,7.47,7.47,0,0,1-2.9.72,5.47,5.47,0,0,1-2.46-.42,5.67,5.67,0,0,1-2-1.43V34h-4.55V12.68h4.55v1.43a5.69,5.69,0,0,1,4.51-1.86,7.57,7.57,0,0,1,5.29,2.5,7.47,7.47,0,0,1,1.53,2.57A7.66,7.66,0,0,1,135,20.28Zm-4.55,0A3.6,3.6,0,0,0,128.2,17a3.62,3.62,0,0,0-4.64,4.78,3.66,3.66,0,0,0,1.33,1.61,3.61,3.61,0,0,0,2,.6,3.32,3.32,0,0,0,1.43-.24,3.41,3.41,0,0,0,1.21-.8,3.5,3.5,0,0,0,.77-1.23,3.36,3.36,0,0,0,.2-1.44Zm18.59,3c0,3.5-3,5-6.31,5a6.66,6.66,0,0,1-6.52-3.62l3.94-2.25a2.51,2.51,0,0,0,2.58,1.79c1.09,0,1.64-.34,1.64-.94,0-1.68-7.46-.8-7.46-6.06,0-3.31,2.79-5,6-5a6.73,6.73,0,0,1,3.4.82,6.61,6.61,0,0,1,2.51,2.44l-3.88,2.1a2.22,2.22,0,0,0-.81-1,2.24,2.24,0,0,0-1.22-.37c-.79,0-1.27.3-1.27.86,0,1.74,7.45.58,7.45,6.21ZM165.7,12.68V27.89h-4.55V26.45a5.18,5.18,0,0,1-4.33,1.86c-3.07,0-5.67-2.19-5.67-6.3V12.68h4.55v8.67a2.44,2.44,0,0,0,.12,1.07,2.24,2.24,0,0,0,.56.92,2.48,2.48,0,0,0,.89.61,2.41,2.41,0,0,0,1.06.16c1.67,0,2.83-1,2.83-3.13v-8.3Zm26.07,5.87v9.34h-4.55V18.94c0-1.52-.73-2.49-2.18-2.49s-2.37,1.06-2.37,2.86v8.58h-4.54V18.94c0-1.52-.73-2.49-2.19-2.49s-2.36,1.06-2.36,2.86v8.58H169V12.68h4.55v1.39a4.69,4.69,0,0,1,1.81-1.43,6,6,0,0,1,4.51.08,4.52,4.52,0,0,1,1.72,1.53,5,5,0,0,1,1.94-1.57,5.08,5.08,0,0,1,2.46-.44C189.5,12.25,191.77,14.74,191.77,18.55Z"/><path class="cls-3" d="M195.62,12.58a3.39,3.39,0,1,0-3.37-3.38A3.38,3.38,0,0,0,195.62,12.58Z"/><path class="cls-3" d="M48.29,5.68h4.55V27.89H48.29Zm7.13,14.6a8,8,0,1,1,8,8A8,8,0,0,1,57.75,26,8.11,8.11,0,0,1,56,23.37a8,8,0,0,1-.59-3.09Zm11.52,0a3.57,3.57,0,0,0-.63-1.92A3.48,3.48,0,0,0,61,17.93a3.51,3.51,0,0,0-.72,3.8,3.5,3.5,0,0,0,1.29,1.56,3.64,3.64,0,0,0,3.3.33A3.31,3.31,0,0,0,66,22.84a3.26,3.26,0,0,0,.75-1.18A3.42,3.42,0,0,0,67,20.28Zm22.68-7.61V27.12c0,5.11-4,7.27-8,7.27a7.76,7.76,0,0,1-7.19-3.68l3.88-2.25A3.45,3.45,0,0,0,79.74,30a3.51,3.51,0,0,0,2,.42,3,3,0,0,0,1.33-.12,3.12,3.12,0,0,0,1.16-.69A3,3,0,0,0,85,28.45a3,3,0,0,0,.19-1.33v-1.4a5.37,5.37,0,0,1-4.43,2,7.73,7.73,0,0,1,0-15.45,5.4,5.4,0,0,1,4.43,2V12.67ZM85.19,20a3.76,3.76,0,0,0-.54-2.09A3.72,3.72,0,0,0,83,16.46a3.67,3.67,0,0,0-4,.7,3.74,3.74,0,0,0-1,1.89,3.69,3.69,0,0,0,.19,2.15,3.62,3.62,0,0,0,1.35,1.67,4.06,4.06,0,0,0,3.46.44,3.46,3.46,0,0,0,1.21-.75,3.63,3.63,0,0,0,.8-1.18,3.37,3.37,0,0,0,.25-1.4Zm7,.3a8,8,0,1,1,8,8,7.93,7.93,0,0,1-3.08-.59A7.64,7.64,0,0,1,94.54,26a8.2,8.2,0,0,1-1.75-2.61,8,8,0,0,1-.59-3.09Zm11.52,0a3.49,3.49,0,0,0-2.22-3.17,3.49,3.49,0,0,0-3.77.82,3.48,3.48,0,0,0-.93,1.79,3.54,3.54,0,0,0,.22,2,3.46,3.46,0,0,0,3.21,2.14,3.37,3.37,0,0,0,2.52-1,3.22,3.22,0,0,0,.75-1.17,3.42,3.42,0,0,0,.22-1.38Z"/></g></g></svg>