<svg width="249" height="205" viewBox="0 0 249 205" fill="none" xmlns="http://www.w3.org/2000/svg">
<path d="M45.7583 187.428C50.1546 186.142 56.4052 185.006 64.3305 184.049C80.3905 182.075 101.714 180.998 124.384 180.998C147.053 180.998 168.377 182.075 184.437 184.049C192.362 185.006 198.583 186.142 203.009 187.428C203.667 187.607 204.355 187.847 205.043 188.056L124.384 63.374L43.7246 188.086C44.3826 187.847 45.0704 187.637 45.7583 187.428Z" fill="#FFEBEE"/>
<path d="M124.384 204.653C171.012 204.653 208.812 200.034 208.812 194.335C208.812 188.637 171.012 184.018 124.384 184.018C77.7564 184.018 39.957 188.637 39.957 194.335C39.957 200.034 77.7564 204.653 124.384 204.653Z" fill="#FFCDD2"/>
<path d="M124.115 96.3591C147.734 96.3591 166.882 77.2117 166.882 53.5921C166.882 29.9726 147.734 10.8252 124.115 10.8252C100.495 10.8252 81.3477 29.9726 81.3477 53.5921C81.3477 77.2117 100.495 96.3591 124.115 96.3591Z" fill="#F5F7F9"/>
<path d="M123.126 111.911C146.746 111.911 165.893 105.149 165.893 96.8081C165.893 88.4669 146.746 81.7051 123.126 81.7051C99.5068 81.7051 80.3594 88.4669 80.3594 96.8081C80.3594 105.149 99.5068 111.911 123.126 111.911Z" fill="#D1D9DF"/>
<path d="M180.398 90.1999H68.0976C61.0396 90.1999 55.2676 84.4279 55.2676 77.3699V75.7549C55.2676 68.6968 61.0396 62.9248 68.0976 62.9248H180.398C187.456 62.9248 193.228 68.6968 193.228 75.7549V77.3699C193.228 84.4279 187.456 90.1999 180.398 90.1999Z" fill="#EFF2F5"/>
<path d="M176.034 64.0893H72.7051L75.8154 55.1172H172.923L176.034 64.0893Z" fill="#D1D9DF"/>
<path d="M71.4785 92.8008H174.807L171.697 101.773H74.5888L71.4785 92.8008Z" fill="#D1D9DF"/>
<path d="M182.852 2.84116V4.7253H181.715V2.84116H180.07V1.79442H181.715V0H182.852V1.79442H184.497V2.81125H182.852V2.84116Z" fill="#657381"/>
<path d="M216.08 139.966V141.85H214.944V139.966H213.299V138.949H214.944V137.154H216.08V138.949H217.725V139.966H216.08Z" fill="#657381"/>
<path d="M2.84116 56.4343C1.286 56.4343 0 55.1782 0 53.5931C0 52.008 1.25609 50.752 2.84116 50.752C4.39632 50.752 5.68232 52.008 5.68232 53.5931C5.68232 55.1782 4.39632 56.4343 2.84116 56.4343ZM2.84116 51.8884C1.88414 51.8884 1.10656 52.666 1.10656 53.623C1.10656 54.58 1.88414 55.3576 2.84116 55.3576C3.79818 55.3576 4.57577 54.58 4.57577 53.623C4.54586 52.666 3.76828 51.8884 2.84116 51.8884Z" fill="#657381"/>
<path d="M245.865 60.6218C244.309 60.6218 243.023 59.3657 243.023 57.7806C243.023 56.1955 244.28 54.9395 245.865 54.9395C247.45 54.9395 248.706 56.1955 248.706 57.7806C248.706 59.3657 247.42 60.6218 245.865 60.6218ZM245.865 56.0759C244.908 56.0759 244.13 56.8535 244.13 57.8105C244.13 58.7675 244.908 59.5451 245.865 59.5451C246.822 59.5451 247.599 58.7675 247.599 57.8105C247.599 56.8236 246.822 56.0759 245.865 56.0759Z" fill="#C2CCD6"/>
<path d="M187.339 110.866C185.784 110.866 184.498 109.61 184.498 108.025C184.498 106.44 185.754 105.184 187.339 105.184C188.924 105.184 190.18 106.44 190.18 108.025C190.18 109.61 188.924 110.866 187.339 110.866ZM187.339 106.32C186.382 106.32 185.605 107.098 185.605 108.055C185.605 109.012 186.382 109.789 187.339 109.789C188.296 109.789 189.074 109.012 189.074 108.055C189.074 107.098 188.296 106.32 187.339 106.32Z" fill="#C2CCD6"/>
<path d="M124.442 12.5596C102.431 12.5596 84.5166 30.3542 84.2773 52.3059H164.607C164.368 30.3243 146.454 12.5596 124.442 12.5596Z" fill="white"/>
<path d="M124.442 12.5603C146.454 12.5603 164.368 30.3549 164.607 52.3066H169.093C168.854 27.8726 148.906 8.07422 124.442 8.07422C99.9782 8.07422 80.0303 27.8726 79.791 52.2767H84.2771C84.5163 30.325 102.431 12.5603 124.442 12.5603Z" fill="#D1D9DF"/>
<path d="M18.6898 151.061V149.177H19.8263V151.061H21.4712V152.078H19.8263V153.872H18.6898V152.078H17.0449V151.061H18.6898Z" fill="#657381"/>
<path d="M54.1615 105.212C55.7166 105.212 57.0026 106.468 57.0026 108.053C57.0026 109.638 55.7465 110.894 54.1615 110.894C52.5764 110.894 51.3203 109.638 51.3203 108.053C51.3203 106.468 52.6063 105.212 54.1615 105.212ZM54.1615 109.758C55.1185 109.758 55.8961 108.98 55.8961 108.023C55.8961 107.066 55.1185 106.289 54.1615 106.289C53.2045 106.289 52.4269 107.066 52.4269 108.023C52.4269 108.98 53.2045 109.758 54.1615 109.758Z" fill="#657381"/>
<path d="M30.5326 79.6738C32.0877 79.6738 33.3737 80.9299 33.3737 82.515C33.3737 84.1001 32.1176 85.3561 30.5326 85.3561C28.9475 85.3561 27.6914 84.1001 27.6914 82.515C27.6914 80.9299 28.9774 79.6738 30.5326 79.6738ZM30.5326 84.2197C31.4896 84.2197 32.2672 83.4421 32.2672 82.4851C32.2672 81.528 31.4896 80.7505 30.5326 80.7505C29.5755 80.7505 28.798 81.528 28.798 82.4851C28.798 83.4421 29.5755 84.2197 30.5326 84.2197Z" fill="#C2CCD6"/>
<path d="M35.1107 14.7158C36.6659 14.7158 37.9519 15.9719 37.9519 17.557C37.9519 19.1121 36.6958 20.3981 35.1107 20.3981C33.5256 20.3981 32.2695 19.142 32.2695 17.557C32.2695 16.0018 33.5555 14.7158 35.1107 14.7158ZM35.1107 19.2916C36.0677 19.2916 36.8453 18.514 36.8453 17.557C36.8453 16.6 36.0677 15.8224 35.1107 15.8224C34.1537 15.8224 33.3761 16.6 33.3761 17.557C33.3761 18.514 34.1537 19.2916 35.1107 19.2916Z" fill="#C2CCD6"/>
<path d="M179.47 60.1728H178.543L174.446 51.9184C174.027 51.1109 173.19 50.6025 172.292 50.6025H76.5902C75.693 50.6025 74.8556 51.1109 74.4369 51.9184L70.3098 60.1728H69.3827C60.1414 60.1728 52.6348 67.6794 52.6348 76.9207C52.6348 86.1619 60.1414 93.6685 69.3827 93.6685H70.3098L74.4369 101.923C74.8556 102.73 75.6631 103.239 76.5902 103.239H82.9006C89.9287 109.071 106.019 112.809 124.441 112.809C142.864 112.809 158.954 109.071 165.982 103.239H172.292C173.19 103.239 174.027 102.73 174.446 101.923L178.543 93.6685H179.47C188.711 93.6685 196.218 86.1619 196.218 76.9207C196.218 67.6794 188.711 60.1728 179.47 60.1728ZM78.0557 55.3877H170.797L173.19 60.1728H75.6631L78.0557 55.3877ZM124.441 108.024C113.675 108.233 102.938 106.618 92.7101 103.239H156.143C145.915 106.618 135.208 108.233 124.441 108.024ZM170.797 98.4537H78.0557L75.6631 93.6685H173.19L170.797 98.4537ZM179.47 88.8834H69.4126C68.5752 88.8834 67.7677 88.7937 66.9901 88.6442C66.0032 88.4348 65.076 88.1358 64.2087 87.7171C63.8499 87.5376 63.5209 87.3582 63.1919 87.1787C59.7526 85.0853 57.4199 81.2871 57.4199 76.9506C57.4199 72.614 59.7227 68.8159 63.1919 66.7224C63.5209 66.513 63.8499 66.3336 64.2087 66.1841C65.076 65.7654 66.0032 65.4364 66.9901 65.2569C67.7677 65.1074 68.5752 65.0177 69.4126 65.0177H179.47C186.08 65.0177 191.433 70.371 191.433 76.9805C191.433 83.5301 186.08 88.8834 179.47 88.8834Z" fill="#8A99A8"/>
<path d="M124.262 82.9916C127.401 82.9916 129.945 80.4475 129.945 77.3093C129.945 74.171 127.401 71.627 124.262 71.627C121.124 71.627 118.58 74.171 118.58 77.3093C118.58 80.4475 121.124 82.9916 124.262 82.9916Z" fill="white"/>
<path fill-rule="evenodd" clip-rule="evenodd" d="M124.261 72.9729C121.866 72.9729 119.924 74.9144 119.924 77.3094C119.924 79.7044 121.866 81.6459 124.261 81.6459C126.656 81.6459 128.597 79.7044 128.597 77.3094C128.597 74.9144 126.656 72.9729 124.261 72.9729ZM117.232 77.3094C117.232 73.4279 120.379 70.2812 124.261 70.2812C128.142 70.2812 131.289 73.4279 131.289 77.3094C131.289 81.1909 128.142 84.3375 124.261 84.3375C120.379 84.3375 117.232 81.1909 117.232 77.3094Z" fill="#8A99A8"/>
<path d="M97.3476 82.0956C99.9904 82.0956 102.133 79.9532 102.133 77.3105C102.133 74.6678 99.9904 72.5254 97.3476 72.5254C94.7049 72.5254 92.5625 74.6678 92.5625 77.3105C92.5625 79.9532 94.7049 82.0956 97.3476 82.0956Z" fill="white"/>
<path fill-rule="evenodd" clip-rule="evenodd" d="M97.3477 73.8694C95.4482 73.8694 93.9084 75.4092 93.9084 77.3087C93.9084 79.2081 95.4482 80.748 97.3477 80.748C99.2472 80.748 100.787 79.2081 100.787 77.3087C100.787 75.4092 99.2472 73.8694 97.3477 73.8694ZM91.2168 77.3087C91.2168 73.9226 93.9617 71.1777 97.3477 71.1777C100.734 71.1777 103.479 73.9226 103.479 77.3087C103.479 80.6947 100.734 83.4396 97.3477 83.4396C93.9617 83.4396 91.2168 80.6947 91.2168 77.3087Z" fill="#8A99A8"/>
<path d="M73.4194 81.497C75.7318 81.497 77.6064 79.6224 77.6064 77.31C77.6064 74.9976 75.7318 73.123 73.4194 73.123C71.107 73.123 69.2324 74.9976 69.2324 77.31C69.2324 79.6224 71.107 81.497 73.4194 81.497Z" fill="white"/>
<path fill-rule="evenodd" clip-rule="evenodd" d="M73.4195 74.468C71.8504 74.468 70.5783 75.74 70.5783 77.3092C70.5783 78.8783 71.8504 80.1503 73.4195 80.1503C74.9886 80.1503 76.2607 78.8783 76.2607 77.3092C76.2607 75.74 74.9886 74.468 73.4195 74.468ZM67.8867 77.3092C67.8867 74.2535 70.3638 71.7764 73.4195 71.7764C76.4752 71.7764 78.9523 74.2535 78.9523 77.3092C78.9523 80.3648 76.4752 82.8419 73.4195 82.8419C70.3638 82.8419 67.8867 80.3648 67.8867 77.3092Z" fill="#8A99A8"/>
<path d="M151.176 82.0956C153.818 82.0956 155.961 79.9532 155.961 77.3105C155.961 74.6678 153.818 72.5254 151.176 72.5254C148.533 72.5254 146.391 74.6678 146.391 77.3105C146.391 79.9532 148.533 82.0956 151.176 82.0956Z" fill="white"/>
<path fill-rule="evenodd" clip-rule="evenodd" d="M151.182 73.8694C149.282 73.8694 147.742 75.4092 147.742 77.3087C147.742 79.2081 149.282 80.748 151.182 80.748C153.081 80.748 154.621 79.2081 154.621 77.3087C154.621 75.4092 153.081 73.8694 151.182 73.8694ZM145.051 77.3087C145.051 73.9226 147.796 71.1777 151.182 71.1777C154.568 71.1777 157.313 73.9226 157.313 77.3087C157.313 80.6947 154.568 83.4396 151.182 83.4396C147.796 83.4396 145.051 80.6947 145.051 77.3087Z" fill="#8A99A8"/>
<path d="M175.107 81.497C177.419 81.497 179.294 79.6224 179.294 77.31C179.294 74.9976 177.419 73.123 175.107 73.123C172.794 73.123 170.92 74.9976 170.92 77.31C170.92 79.6224 172.794 81.497 175.107 81.497Z" fill="white"/>
<path fill-rule="evenodd" clip-rule="evenodd" d="M175.105 74.468C173.536 74.468 172.264 75.74 172.264 77.3092C172.264 78.8783 173.536 80.1503 175.105 80.1503C176.674 80.1503 177.946 78.8783 177.946 77.3092C177.946 75.74 176.674 74.468 175.105 74.468ZM169.572 77.3092C169.572 74.2535 172.049 71.7764 175.105 71.7764C178.161 71.7764 180.638 74.2535 180.638 77.3092C180.638 80.3648 178.161 82.8419 175.105 82.8419C172.049 82.8419 169.572 80.3648 169.572 77.3092Z" fill="#8A99A8"/>
<path fill-rule="evenodd" clip-rule="evenodd" d="M109.316 24.8142C109.783 25.4958 109.608 26.4263 108.927 26.8927C104.037 30.2383 100.694 34.5213 98.5684 37.9912C97.508 39.7225 96.7577 41.2401 96.2748 42.3185C96.0336 42.8573 95.8596 43.2853 95.7474 43.5741C95.6914 43.7185 95.6508 43.8279 95.6251 43.899C95.6122 43.9345 95.6031 43.9603 95.5975 43.9762L95.5919 43.9923L95.5917 43.9929C95.5916 43.9932 95.5915 43.9934 95.5914 43.9937C95.5914 43.9937 95.5914 43.9937 95.5914 43.9937C95.5914 43.9938 95.5913 43.9941 95.5913 43.9942C95.5912 43.9943 95.5913 43.9941 95.5913 43.9942C95.3256 44.7754 94.4772 45.1941 93.6956 44.9293C92.9134 44.6642 92.4942 43.8153 92.7592 43.0331L94.1754 43.513C92.7592 43.0331 92.7594 43.0327 92.7595 43.0321L92.7611 43.0276L92.7644 43.018C92.767 43.0103 92.7706 43 92.7751 42.9872C92.7841 42.9615 92.7968 42.9256 92.8134 42.8798C92.8465 42.7884 92.895 42.6578 92.9595 42.4917C93.0885 42.1594 93.2818 41.6846 93.5453 41.0963C94.0718 39.9204 94.8804 38.2866 96.0181 36.4291C98.2891 32.7213 101.899 28.0771 107.238 24.4245C107.919 23.9581 108.85 24.1326 109.316 24.8142Z" fill="#EFF2F5"/>
<path d="M117.443 178.066L118.311 182.642C118.49 183.659 118.909 184.616 119.477 185.453C120.314 186.709 120.763 188.175 120.763 189.7V193.648H123.993V189.7C123.993 189.7 123.724 187.576 122.079 184.376C120.464 181.176 120.703 177.558 120.703 177.558L117.443 178.066Z" fill="#DFDCE5"/>
<path d="M109.429 178.066L108.561 182.642C108.382 183.659 107.963 184.616 107.395 185.453C106.557 186.709 106.109 188.175 106.109 189.7V193.648H102.879V189.7C102.879 189.7 103.148 187.576 104.793 184.376C106.408 181.176 106.169 177.558 106.169 177.558L109.429 178.066Z" fill="#DFDCE5"/>
<path d="M135.507 169.899C133.713 164.306 128.509 160.538 122.647 160.538H103.417C100.666 160.538 98.0339 161.615 96.09 163.559C91.6338 167.955 92.0226 175.282 96.9573 179.17C98.2732 180.217 99.0507 181.772 99.0507 183.447L99.0807 193.675H102.61V189.727C102.61 188.232 103.058 186.737 103.896 185.48C104.464 184.613 104.853 183.656 105.062 182.669H121.511C121.69 183.686 122.109 184.643 122.677 185.48C123.515 186.737 123.963 188.202 123.963 189.727V193.675H127.193V189.727C127.193 188.232 127.642 186.737 128.479 185.48L136.135 171.843L135.507 169.899Z" fill="#D1D9DF"/>
<path d="M91.6618 180.878C91.6618 179.771 90.8843 178.874 89.8973 178.874C88.9403 178.874 88.1328 179.771 88.1328 180.878C88.1328 181.984 88.9104 184.975 89.8973 184.975C90.8843 184.945 91.6618 181.984 91.6618 180.878Z" fill="white"/>
<path d="M135.416 173.041C135.416 173.041 138.556 172.443 138.706 169.272C139.842 170.08 140.68 172.502 138.975 174.536L135.416 173.041Z" fill="white"/>
<path d="M130.124 173.041C130.124 173.041 126.984 172.443 126.834 169.272C125.698 170.08 124.86 172.502 126.565 174.536L130.124 173.041Z" fill="white"/>
<path d="M142.117 174.685C141.609 174.835 141.071 174.865 140.443 174.655C139.605 174.356 138.798 174.536 138.17 174.835L137.661 174.416C136.345 173.28 134.611 172.592 132.727 172.592C130.843 172.592 129.138 173.28 127.792 174.416L127.523 174.835C126.895 174.536 126.057 174.326 125.16 174.625C124.562 174.835 123.994 174.805 123.515 174.685C123.336 177.796 125.758 178.214 126.416 178.274L126.446 178.334C126.446 178.334 126.416 183.418 127.553 184.525C128.958 185.93 130.274 186.14 130.274 188.652C130.274 190.237 132.727 190.536 132.727 190.536C132.727 190.536 135.179 190.237 135.179 188.652C135.179 186.14 136.495 185.93 137.901 184.525C138.977 183.448 139.007 178.753 139.007 178.334L139.037 178.304C139.067 178.304 142.327 178.274 142.117 174.685Z" fill="#EFF2F5"/>
<path d="M130.037 187.068C130.187 187.457 130.276 187.966 130.276 188.624C130.276 190.209 132.729 190.508 132.729 190.508C132.729 190.508 135.181 190.209 135.181 188.624C135.181 187.966 135.271 187.487 135.42 187.068H130.037Z" fill="white"/>
<path d="M101.683 173.221C101.205 170.59 99.141 168.556 96.5391 168.077L93.5484 167.539C92.2923 171.128 93.0998 175.255 95.8213 178.156H97.5859C100.188 178.126 102.162 175.793 101.683 173.221Z" fill="white"/>
<path d="M121.092 160.541H105.66C106.767 163.741 109.787 166.044 113.376 166.044C116.965 166.044 119.986 163.741 121.092 160.541Z" fill="white"/>
<path d="M129.558 180.578C128.93 180.578 128.451 181.057 128.451 181.685C128.451 182.283 128.93 182.791 129.558 182.791H129.588C130.186 182.791 130.694 182.313 130.694 181.685C130.664 181.057 130.156 180.578 129.558 180.578Z" fill="#8A99A8"/>
<path d="M135.925 180.578C135.297 180.578 134.818 181.057 134.818 181.685C134.818 182.283 135.297 182.791 135.925 182.791H135.955C136.553 182.791 137.061 182.313 137.061 181.685C137.031 181.057 136.523 180.578 135.925 180.578Z" fill="#8A99A8"/>
<path d="M142.119 192.571H128.302V189.73C128.302 188.833 128.481 187.965 128.84 187.128C129.079 187.487 129.199 187.906 129.199 188.623C129.199 190.657 131.352 191.435 132.638 191.584C132.668 191.584 132.728 191.584 132.758 191.584C132.907 191.584 133.685 191.465 134.432 191.136C136.077 190.418 136.317 189.222 136.317 188.593C136.317 187.248 136.705 186.949 137.603 186.201C137.932 185.932 138.32 185.633 138.709 185.244C139.128 184.825 139.726 183.928 139.995 181.057C140.055 180.369 140.085 179.711 140.115 179.203C140.713 179.053 141.49 178.694 142.148 178.036C142.956 177.169 143.315 176.033 143.225 174.597C143.195 174.268 143.046 173.939 142.747 173.76C142.477 173.58 142.119 173.52 141.79 173.61C141.461 173.7 141.132 173.7 140.803 173.58H140.773C141.012 172.862 141.102 172.115 141.012 171.367C140.862 170.141 140.204 168.975 139.337 168.376C139.008 168.137 138.589 168.107 138.231 168.287C137.872 168.466 137.632 168.825 137.603 169.214C137.573 169.961 137.304 170.5 136.975 170.889L136.526 169.543C134.582 163.502 128.989 159.404 122.619 159.404H105.662H103.419H98.0955C92.9814 159.404 88.8243 163.561 88.8243 168.675V177.977C87.8075 178.455 87.0598 179.562 87.0598 180.848C87.0598 181.565 87.2991 182.732 87.6281 183.689C88.1963 185.244 88.944 186.051 89.901 186.051C90.858 186.051 91.6057 185.274 92.1739 183.689C92.5029 182.732 92.7421 181.565 92.7421 180.848C92.7421 179.562 92.0244 178.455 90.9776 177.977V168.675C90.9776 165.356 93.2506 162.574 96.331 161.827C95.9721 162.096 95.6132 162.425 95.2842 162.754C94.0281 163.98 93.101 165.445 92.5328 167.06C92.5328 167.09 92.5029 167.12 92.5029 167.15C91.0973 171.188 92.0244 175.614 94.8954 178.724C94.9253 178.754 94.9852 178.814 95.0151 178.844L95.045 178.874C95.4039 179.263 95.8226 179.621 96.2413 179.95C97.288 180.788 97.916 182.044 97.916 183.36L97.946 192.481H88.1066C87.5084 192.481 87 192.96 87 193.588C87 194.186 87.4785 194.694 88.1066 194.694H108.264C108.862 194.694 109.37 194.216 109.37 193.588C109.37 192.99 108.892 192.481 108.264 192.481H107.157V189.64C107.157 188.354 107.546 187.098 108.264 186.021C108.772 185.244 109.161 184.406 109.4 183.539H117.415C117.655 184.436 118.043 185.274 118.552 186.021C119.27 187.098 119.658 188.354 119.658 189.64V192.481H115.83C115.232 192.481 114.724 192.96 114.724 193.588C114.724 194.186 115.202 194.694 115.83 194.694H120.765H123.995H127.225H142.148C142.747 194.694 143.255 194.216 143.255 193.588C143.225 193.05 142.717 192.571 142.119 192.571ZM89.901 183.479C89.572 182.792 89.243 181.535 89.243 180.878C89.243 180.369 89.5421 179.95 89.901 179.95C90.2599 179.95 90.5589 180.369 90.5589 180.878C90.5589 181.535 90.23 182.792 89.901 183.479ZM134.103 188.623C134.103 188.982 133.266 189.281 132.728 189.401C132.189 189.311 131.352 188.982 131.352 188.623C131.352 188.474 131.352 188.324 131.352 188.175H134.103C134.103 188.324 134.103 188.474 134.103 188.623ZM138.859 172.085C138.859 172.504 138.739 173.012 138.38 173.55C138.201 173.401 138.021 173.251 137.842 173.132C138.201 172.833 138.53 172.504 138.859 172.085ZM119.359 161.617C118.103 163.651 115.86 164.937 113.378 164.937C110.896 164.937 108.653 163.651 107.397 161.617H119.359ZM97.617 177.049H96.3609C95.045 175.494 94.2375 173.55 94.1179 171.487C94.058 170.56 94.1478 169.662 94.3571 168.795L96.3609 169.154C98.5142 169.543 100.249 171.277 100.638 173.431C100.787 174.328 100.548 175.255 99.9796 175.943C99.3815 176.631 98.5142 177.049 97.617 177.049ZM126.088 189.73V192.571H125.072V189.73C125.072 189.7 125.072 189.67 125.072 189.64C125.072 187.936 124.533 186.291 123.606 184.885C123.098 184.137 122.769 183.33 122.619 182.463L121.752 177.887C121.632 177.289 121.064 176.9 120.466 177.019C119.868 177.139 119.479 177.707 119.599 178.305L120.466 182.881C120.675 184.048 121.124 185.124 121.782 186.111C122.5 187.188 122.888 188.444 122.888 189.73V192.571H121.872V189.73C121.872 187.995 121.363 186.321 120.406 184.885C119.898 184.137 119.569 183.33 119.419 182.463L118.552 177.887C118.432 177.289 117.864 176.9 117.266 177.019C116.668 177.139 116.279 177.707 116.399 178.305L116.997 181.446H109.939L110.537 178.305C110.656 177.707 110.268 177.139 109.669 177.019C109.071 176.9 108.503 177.289 108.383 177.887L107.516 182.463C107.367 183.33 107.008 184.137 106.529 184.885C105.572 186.321 105.064 187.995 105.064 189.73V192.571H103.778V189.73C103.778 188.444 104.167 187.188 104.884 186.111C105.542 185.124 105.991 184.048 106.2 182.881L107.068 178.305C107.187 177.707 106.798 177.139 106.2 177.019C105.602 176.9 105.034 177.289 104.914 177.887L104.047 182.463C103.897 183.33 103.539 184.137 103.06 184.885C102.103 186.321 101.595 187.995 101.595 189.73V192.571H100.249L100.219 183.449C100.219 181.864 99.6506 180.339 98.6039 179.173C99.8002 178.963 100.907 178.335 101.714 177.378C102.701 176.182 103.12 174.597 102.851 173.072C102.282 170.021 99.86 167.599 96.8095 167.031L95.1945 166.732C95.6431 165.864 96.2413 165.057 96.9291 164.339C98.6936 162.604 101.026 161.647 103.479 161.647H104.974C106.44 164.967 109.729 167.15 113.438 167.15C117.146 167.15 120.436 164.967 121.901 161.647H122.709C128.122 161.647 132.877 165.117 134.522 170.261L135.031 171.786C134.313 171.606 133.565 171.487 132.817 171.487C131.92 171.487 131.023 171.636 130.186 171.905C129.558 171.726 128.122 171.068 128.032 169.214C128.002 168.825 127.763 168.466 127.404 168.287C127.045 168.107 126.627 168.137 126.298 168.376C125.43 169.004 124.802 170.141 124.623 171.367C124.533 172.115 124.623 172.862 124.862 173.58C124.563 173.67 124.264 173.67 123.965 173.58C123.636 173.49 123.307 173.55 123.038 173.73C122.769 173.909 122.589 174.238 122.559 174.567C122.47 176.003 122.829 177.169 123.636 178.006C124.204 178.634 124.892 178.963 125.49 179.143C125.52 179.651 125.55 180.339 125.61 181.087C125.879 183.958 126.477 184.855 126.896 185.274C127.016 185.393 127.135 185.513 127.255 185.603C126.447 186.859 126.088 188.265 126.088 189.73ZM127.703 173.072C127.524 173.191 127.344 173.341 127.165 173.49H127.135C126.806 172.982 126.687 172.474 126.687 172.085C127.016 172.474 127.344 172.803 127.703 173.072ZM126.627 177.139C126.627 177.139 125.7 177.109 125.161 176.511C124.982 176.332 124.862 176.092 124.772 175.823C125.042 175.793 125.311 175.734 125.58 175.644C125.759 175.584 125.969 175.554 126.148 175.554C126.268 175.554 126.627 175.614 126.687 175.644C127.315 175.823 127.823 176.272 127.973 176.391C128.152 176.631 128.242 176.87 128.302 176.99C128.391 177.498 128.84 177.887 129.378 177.887H129.408C130.006 177.887 130.515 177.408 130.515 176.78C130.515 176.601 130.485 176.451 130.395 176.302C130.305 176.003 130.096 175.554 129.737 175.076L129.677 175.016C129.647 174.956 129.587 174.926 129.558 174.866L129.588 174.896C129.558 174.866 129.558 174.866 129.528 174.836C129.468 174.776 129.408 174.717 129.318 174.657C130.335 174.029 131.531 173.67 132.758 173.67C134.014 173.67 135.27 174.059 136.317 174.747C136.257 174.806 136.197 174.866 136.137 174.896C136.107 174.896 136.107 174.926 136.077 174.926L136.107 174.896C136.047 174.956 136.017 174.986 135.988 175.046L135.928 175.105C135.599 175.554 135.389 175.973 135.3 176.272C135.24 176.391 135.21 176.481 135.21 176.631C135.21 176.661 135.21 176.691 135.21 176.691C135.21 176.72 135.21 176.72 135.21 176.75C135.21 177.348 135.689 177.857 136.317 177.857H136.346C136.885 177.857 137.333 177.468 137.423 176.96C137.483 176.84 137.573 176.631 137.722 176.421C137.961 176.212 139.038 175.285 140.115 175.644C140.384 175.734 140.653 175.793 140.922 175.823C140.833 176.092 140.713 176.332 140.533 176.511C139.965 177.109 139.038 177.169 139.038 177.169H139.008C138.41 177.169 137.902 177.677 137.932 178.276C137.932 180.668 137.573 183.27 137.154 183.689C136.855 183.988 136.526 184.257 136.227 184.496C135.718 184.915 135.18 185.334 134.791 185.962H130.724C130.335 185.334 129.797 184.915 129.288 184.496C128.989 184.257 128.66 183.988 128.361 183.689C127.973 183.27 127.614 180.997 127.584 178.754C127.673 178.605 127.733 178.425 127.733 178.246C127.703 177.648 127.225 177.139 126.627 177.139Z" fill="#8A99A8"/>
</svg>
