<svg width="42" height="40" viewBox="0 0 42 40" fill="none" xmlns="http://www.w3.org/2000/svg">
<g clip-path="url(#clip0)">
<path d="M28.26 33.11L1.58001 14.64C-1.11999 12.77 -0.199986 8.88 3.17001 8L31.53 0.239999C32.1253 0.0121441 32.7665 -0.0701413 33.4 -9.574e-07C34.036 0.0815292 34.643 0.314748 35.17 0.679999C35.6924 1.04731 36.1235 1.52972 36.43 2.09C36.7397 2.67895 36.9011 3.33458 36.9 4L35.22 30.14C35.02 33.25 30.97 34.98 28.22 33.14L28.26 33.11Z" fill="#E9327C"/>
<path d="M19.8 37.66L4.08 6.83001C3.71823 6.12397 3.56229 5.33044 3.63 4.54001C3.68624 3.74948 3.96344 2.99065 4.43 2.35001C4.89225 1.70895 5.52186 1.20733 6.25 0.900007C6.97539 0.59339 7.77223 0.496383 8.55 0.620007L37.69 5.13001C38.359 5.23029 38.9937 5.49105 39.54 5.89001C40.0893 6.29159 40.5378 6.81537 40.85 7.42001C41.1591 8.02712 41.3202 8.69874 41.3202 9.38001C41.3202 10.0613 41.1591 10.7329 40.85 11.34L27.43 37.67C27.0719 38.3741 26.526 38.9653 25.8527 39.3783C25.1794 39.7913 24.4049 40.0099 23.615 40.0099C22.8251 40.0099 22.0506 39.7913 21.3773 39.3783C20.704 38.9653 20.1581 38.3741 19.8 37.67V37.66Z" fill="#1DACE3"/>
</g>
<defs>
<clipPath id="clip0">
<rect width="42" height="40" fill="white"/>
</clipPath>
</defs>
</svg>
