<svg width="278" height="172" viewBox="0 0 278 172" fill="none" xmlns="http://www.w3.org/2000/svg">
<path d="M138.339 141.625C176.054 141.625 206.628 111.015 206.628 73.256C206.628 35.4969 176.054 4.88721 138.339 4.88721C100.623 4.88721 70.0488 35.4969 70.0488 73.256C70.0488 111.015 100.623 141.625 138.339 141.625Z" fill="#EFF7F2"/>
<path d="M138.339 126.023C167.447 126.023 191.044 102.399 191.044 73.2565C191.044 44.1142 167.447 20.4897 138.339 20.4897C109.23 20.4897 85.6328 44.1142 85.6328 73.2565C85.6328 102.399 109.23 126.023 138.339 126.023Z" fill="#D7ECDE"/>
<path d="M138.339 108.636C157.856 108.636 173.677 92.796 173.677 73.2565C173.677 53.7169 157.856 37.877 138.339 37.877C118.822 37.877 103 53.7169 103 73.2565C103 92.796 118.822 108.636 138.339 108.636Z" fill="#B2DDC2"/>
<path d="M116.948 45.8936V41.2133C116.621 40.4458 116.079 39.7889 115.389 39.3212C114.698 38.8534 113.888 38.5946 113.055 38.5757C112.451 38.5381 111.844 38.5706 111.248 38.6726V62.6657C113.167 62.8925 115.07 63.2341 116.948 63.6887V45.8936Z" fill="#F0F2F5"/>
<path d="M122.09 48.274C121.488 48.233 120.882 48.2655 120.287 48.371V64.6282C122.24 65.2589 124.144 66.0286 125.987 66.9316V50.9083C125.659 50.1409 125.117 49.4844 124.426 49.0172C123.735 48.5501 122.924 48.292 122.09 48.274Z" fill="#F0F2F5"/>
<path d="M107.91 62.3848V35.6237C107.582 34.8568 107.04 34.2006 106.35 33.7334C105.659 33.2663 104.849 33.008 104.016 32.9893C103.413 32.9483 102.808 32.9809 102.213 33.0863V62.4817C104.107 62.3149 106.011 62.2825 107.91 62.3848Z" fill="#F0F2F5"/>
<path d="M94.7891 64.3236C96.0985 63.7323 97.4676 63.2839 98.8729 62.9864V42.0923C98.4522 41.2365 97.9112 40.7216 97.2033 40.521C95.9077 40.1466 94.1981 40.8319 93.1562 41.3902V62.9061C93.591 63.2334 94.0079 63.5838 94.4051 63.9558C94.5487 64.0728 94.6689 64.1865 94.7891 64.3236Z" fill="#F0F2F5"/>
<path d="M103.758 65.7143C101.546 65.7913 99.3573 66.1957 97.2634 66.9145C97.0597 66.988 96.8627 67.0649 96.669 67.1451C98.4054 70.8225 98.7427 75.7067 98.6726 79.5144C101.01 79.9791 105.535 81.4267 109.578 85.9431C109.874 86.2734 110.026 86.7076 110.001 87.1502C109.977 87.5928 109.778 88.0076 109.448 88.3033C109.144 88.5797 108.747 88.7322 108.336 88.7312C108.101 88.7317 107.869 88.6825 107.654 88.5868C107.44 88.4912 107.248 88.3513 107.091 88.1763C105.238 86.0622 102.896 84.4356 100.269 83.4392C99.6932 83.2237 99.1043 83.0461 98.5056 82.9076C98.3887 84.3385 98.2518 85.2845 98.2285 85.435C98.2012 85.6561 98.13 85.8696 98.0191 86.0629C97.9082 86.2561 97.7599 86.4252 97.5828 86.5601C97.4057 86.6951 97.2034 86.7933 96.9878 86.8489C96.7723 86.9045 96.5478 86.9163 96.3276 86.8838C96.1074 86.8512 95.8959 86.7749 95.7056 86.6594C95.5153 86.5438 95.35 86.3913 95.2194 86.2108C95.0888 86.0304 94.9956 85.8256 94.9452 85.6085C94.8948 85.3915 94.8883 85.1665 94.926 84.9469C95.4436 81.44 95.9912 72.2433 93.1996 67.7369C92.9676 67.5465 92.7911 67.297 92.6887 67.0148C92.521 66.8011 92.338 66.6 92.1411 66.413C89.049 63.5246 86.1005 63.6015 84.9652 64.327C84.2974 64.7615 84.4443 65.2329 84.5111 65.4335C86.2742 70.7824 86.4111 83.4526 86.2408 85.9465C86.0571 88.6008 89.9406 94.1537 92.4316 97.032C92.7057 97.3688 92.8381 97.7991 92.8007 98.2319C92.7634 98.6647 92.5592 99.0659 92.2315 99.3506C91.9037 99.6352 91.4781 99.781 91.0449 99.7569C90.6117 99.7329 90.2048 99.5409 89.9105 99.2217C88.2499 97.2843 86.748 95.2161 85.4193 93.0371L52.0742 112.427L62.5459 124.168C62.5459 124.168 75.4919 117.899 87.1056 112.517C94.6522 107.97 102.179 103.795 106.493 102.381C116.961 98.9543 125.987 95.979 125.987 85.1776V81.4133C125.409 81.3832 119.025 80.9219 113.519 74.7706C113.37 74.6075 113.255 74.4165 113.181 74.2087C113.106 74.0008 113.073 73.7803 113.085 73.5597C113.096 73.3392 113.15 73.1231 113.246 72.9238C113.341 72.7246 113.474 72.5461 113.638 72.3988C113.803 72.2516 113.995 72.1383 114.203 72.0657C114.411 71.9931 114.632 71.9625 114.852 71.9757C115.072 71.9889 115.287 72.0456 115.486 72.1426C115.684 72.2396 115.861 72.375 116.006 72.5408C117.86 74.653 120.202 76.2782 122.828 77.2746C123.845 77.6666 124.906 77.9305 125.987 78.0602V70.7055C120.841 67.9343 115.174 66.2706 109.348 65.8213C107.489 65.6599 105.622 65.6241 103.758 65.7143Z" fill="#F0F2F5"/>
<path d="M129.198 49.8985C127.942 46.9232 125.505 45.1614 122.329 44.9374C121.649 44.8908 120.965 44.9099 120.289 44.9942V40.5079L120.159 40.197C118.255 35.6805 114.248 34.9116 111.25 35.2727V34.9383L111.119 34.6274C108.675 28.8239 102.771 29.205 99.9732 30.218L98.8746 30.6191V37.576C98.6384 37.4701 98.3952 37.3808 98.1466 37.3086C94.6639 36.3057 90.9607 38.7895 90.55 39.077L89.8354 39.5785V61.091C87.1807 60.1684 84.7465 60.4893 83.157 61.4989C81.3939 62.6288 80.6927 64.531 81.3305 66.4667C82.8498 71.0868 83.1002 82.8209 82.8999 85.7059C82.8097 87.0097 83.2171 88.5208 83.8716 90.0519L50.0891 109.699C49.8895 109.804 49.7132 109.947 49.5706 110.122C49.428 110.296 49.3222 110.498 49.2595 110.714C49.1967 110.931 49.1784 111.158 49.2055 111.382C49.2327 111.605 49.3048 111.821 49.4175 112.017C49.5302 112.212 49.6811 112.382 49.8613 112.517C50.0414 112.653 50.247 112.75 50.4657 112.804C50.6844 112.857 50.9117 112.866 51.1339 112.829C51.3561 112.793 51.5686 112.712 51.7586 112.591L52.0558 112.417L85.4009 93.0272C86.7296 95.2062 88.2315 97.2745 89.8922 99.2119C90.0334 99.3854 90.208 99.5287 90.4056 99.6334C90.6033 99.7381 90.8199 99.802 91.0427 99.8212C91.2654 99.8405 91.4898 99.8148 91.7024 99.7456C91.915 99.6764 92.1116 99.5652 92.2805 99.4185C92.4494 99.2718 92.5872 99.0927 92.6856 98.8917C92.784 98.6907 92.8411 98.472 92.8535 98.2485C92.8658 98.025 92.8332 97.8012 92.7576 97.5906C92.682 97.3799 92.5649 97.1866 92.4132 97.0222C89.9222 94.1438 86.0387 88.591 86.2224 85.9366C86.3927 83.4427 86.2558 70.7859 84.4927 65.4236C84.4259 65.223 84.269 64.755 84.9468 64.3171C86.0821 63.5916 89.0306 63.5148 92.1227 66.4031C92.3196 66.5901 92.5027 66.7912 92.6704 67.0049C92.7728 67.2872 92.9492 67.5366 93.1812 67.727C95.9728 72.2401 95.4252 81.4335 94.9076 84.937C94.8699 85.1567 94.8764 85.3816 94.9268 85.5987C94.9772 85.8157 95.0704 86.0205 95.201 86.201C95.3316 86.3814 95.4969 86.5339 95.6872 86.6495C95.8775 86.7651 96.089 86.8414 96.3092 86.8739C96.5294 86.9065 96.7539 86.8946 96.9695 86.839C97.185 86.7834 97.3873 86.6853 97.5644 86.5503C97.7415 86.4153 97.8899 86.2462 98.0007 86.053C98.1116 85.8598 98.1828 85.6463 98.2101 85.4251C98.2334 85.2747 98.3703 84.3286 98.4872 82.8978C99.086 83.0384 99.675 83.2182 100.25 83.436C102.877 84.4324 105.22 86.059 107.072 88.1731C107.229 88.3481 107.421 88.488 107.636 88.5836C107.851 88.6793 108.083 88.7285 108.318 88.7281C108.729 88.7291 109.125 88.5765 109.43 88.3001C109.76 88.0044 109.959 87.5897 109.983 87.147C110.007 86.7044 109.855 86.2702 109.56 85.9399C105.516 81.4235 100.998 79.9759 98.6542 79.5113C98.721 75.7102 98.3837 70.8193 96.6507 67.142C96.8443 67.0617 97.0414 66.9848 97.245 66.9113C99.3389 66.1925 101.528 65.7881 103.74 65.7111C105.603 65.6232 107.471 65.6611 109.33 65.8248C115.155 66.2741 120.823 67.9378 125.969 70.709V78.0637C124.887 77.934 123.826 77.6701 122.81 77.2781C120.191 76.2789 117.856 74.6538 116.008 72.5443C115.862 72.3785 115.685 72.2431 115.487 72.1461C115.289 72.0491 115.074 71.9924 114.854 71.9792C114.633 71.966 114.413 71.9966 114.205 72.0692C113.996 72.1418 113.804 72.2551 113.64 72.4024C113.476 72.5496 113.342 72.7281 113.247 72.9273C113.152 73.1266 113.097 73.3427 113.086 73.5632C113.075 73.7838 113.108 74.0043 113.182 74.2122C113.257 74.42 113.372 74.611 113.52 74.7742C119.027 80.9254 125.411 81.3867 125.989 81.4168V85.1811C125.989 95.9825 116.973 98.9444 106.498 102.374C102.184 103.788 94.6572 107.964 87.1106 112.511C75.8876 119.27 64.6245 126.849 63.8465 127.374C63.4875 127.625 63.2415 128.007 63.1614 128.438C63.0814 128.869 63.1737 129.315 63.4186 129.678C63.6635 130.042 64.0412 130.295 64.4704 130.382C64.8996 130.469 65.3459 130.384 65.7131 130.145C66.027 129.934 97.245 108.927 107.55 105.547C118.255 102.037 129.328 98.4062 129.328 85.1811V50.2127L129.198 49.8985ZM98.8746 62.9865C97.4693 63.2841 96.1001 63.7325 94.7907 64.3238C94.6705 64.1967 94.5503 64.073 94.4234 63.956C94.0262 63.584 93.6093 63.2336 93.1746 62.9063V41.3904C94.2131 40.8321 95.9261 40.1468 97.2217 40.5212C97.9129 40.7218 98.4538 41.2367 98.8913 42.0925L98.8746 62.9865ZM107.91 36.1886V62.3848C106.012 62.2825 104.108 62.3149 102.214 62.4817V33.0963C102.809 32.9909 103.414 32.9583 104.017 32.9994C104.85 33.018 105.66 33.2763 106.351 33.7435C107.041 34.2106 107.582 34.8668 107.91 35.6337V36.1886ZM116.95 45.8835V63.6719C115.072 63.2173 113.168 62.8757 111.25 62.6489V38.6659C111.846 38.5639 112.452 38.5313 113.056 38.5689C113.89 38.5878 114.7 38.8467 115.39 39.3144C116.081 39.7821 116.622 40.439 116.95 41.2066V45.8835ZM125.989 66.9213C124.146 66.0183 122.241 65.2486 120.289 64.618V48.3707C120.884 48.2653 121.489 48.2327 122.092 48.2738C122.926 48.2918 123.736 48.5498 124.427 49.017C125.119 49.4841 125.661 50.1407 125.989 50.9081V66.9213Z" fill="#8999A8"/>
<path d="M168.197 103.213C167.813 103.415 167.366 103.459 166.95 103.336C166.534 103.213 166.182 102.933 165.969 102.555C165.756 102.178 165.697 101.732 165.807 101.312C165.916 100.892 166.184 100.531 166.554 100.305C171.025 97.7775 177.119 97.3295 180.128 97.2727V60.0144C178.565 59.7335 175.787 59.7135 174.428 62.5718V83.8637H171.089V76.1747V50.7675C169.526 50.4867 166.768 50.4666 165.389 53.3216V74.6168H162.05V43.6902C161.32 43.5661 160.578 43.528 159.839 43.5766C157.859 43.7304 156.5 44.5795 155.725 46.2076V76.9135H152.386V51.5063C150.823 51.2255 148.065 51.2054 146.686 54.0604V73.1158L146.709 73.1392C152.78 78.8224 150.616 93.963 150.523 94.6049C150.458 95.0438 150.222 95.439 149.866 95.7036C149.511 95.9681 149.064 96.0804 148.626 96.0157C148.188 95.951 147.793 95.7145 147.529 95.3584C147.264 95.0023 147.152 94.5557 147.217 94.1168C147.791 90.2188 148.409 79.2971 144.432 75.5829C141.343 72.6945 138.391 72.7714 137.256 73.4969C136.588 73.9315 136.735 74.4029 136.802 74.6034C138.234 78.9494 138.535 88.0993 138.535 94.996C138.535 98.1586 142.081 110.474 159.438 112.975C164.207 113.66 167.987 115.051 172.601 117.893H172.758L195.411 129.744L210.825 118.936L181.373 100.626C179.607 100.586 172.712 100.663 168.197 103.213Z" fill="#F0F2F5"/>
<path d="M213.176 116.495L183.458 97.9811V57.5536L182.356 57.1557C180.98 56.6941 179.527 56.5056 178.078 56.6008C176.781 56.6761 175.521 57.0638 174.405 57.7307V48.2933L173.307 47.8921C171.929 47.4328 170.475 47.2444 169.026 47.3372C167.729 47.4118 166.47 47.797 165.353 48.4605V41.1559L164.231 40.7848C161.225 39.7819 154.931 39.4476 152.5 45.2077L152.37 45.5186V48.1395C151.693 48.0569 151.01 48.0378 150.33 48.0827C147.157 48.3067 144.716 50.0885 143.464 53.0471L143.331 53.358V70.7954C140.215 69.2776 137.257 69.5284 135.444 70.6917C133.63 71.8551 132.979 73.7239 133.614 75.6595C134.615 78.7284 135.18 85.6018 135.18 95.0124C135.18 97.6668 136.455 102.294 140.045 106.609C143.05 110.22 148.77 114.837 158.948 116.304C167.199 117.491 171.951 120.751 188.687 134.18C189.034 134.44 189.468 134.556 189.899 134.502C190.329 134.447 190.721 134.227 190.993 133.888C191.264 133.55 191.393 133.118 191.352 132.686C191.311 132.254 191.104 131.854 190.774 131.572C182.656 125.06 177.203 120.757 172.585 117.912C167.967 115.067 164.191 113.683 159.422 112.995C142.058 110.494 138.519 98.1783 138.519 95.0158C138.519 88.1124 138.218 78.9691 136.786 74.6232C136.719 74.4226 136.566 73.9546 137.24 73.5166C138.375 72.7912 141.327 72.7143 144.416 75.6027C148.393 79.3168 147.775 90.2386 147.201 94.1366C147.169 94.3539 147.18 94.5754 147.233 94.7884C147.287 95.0014 147.382 95.2018 147.513 95.3782C147.643 95.5545 147.808 95.7033 147.996 95.8161C148.184 95.9288 148.393 96.0034 148.61 96.0354C148.827 96.0675 149.048 96.0564 149.261 96.0029C149.474 95.9493 149.674 95.8543 149.85 95.7233C150.026 95.5923 150.175 95.4278 150.288 95.2393C150.4 95.0508 150.475 94.842 150.507 94.6246C150.6 93.9828 152.764 78.8287 146.693 73.1589L146.67 73.1355V54.0801C148.049 51.2252 150.807 51.2452 152.37 51.526V76.9332H155.709V46.2072C156.494 44.5892 157.843 43.73 159.823 43.5763C160.562 43.5277 161.304 43.5658 162.033 43.6899V74.6031H165.373V53.3079C166.752 50.4529 169.51 50.473 171.073 50.7538V76.161V83.85H174.412V62.5715C175.788 59.7132 178.549 59.7332 180.112 60.014V97.2824C177.107 97.3392 171.009 97.7872 166.538 100.315C166.168 100.54 165.9 100.901 165.79 101.321C165.681 101.741 165.74 102.187 165.953 102.565C166.166 102.943 166.518 103.223 166.934 103.346C167.35 103.468 167.797 103.424 168.181 103.223C172.695 100.672 179.591 100.595 181.357 100.625L210.792 118.969L211.393 119.343C211.657 119.51 211.963 119.598 212.275 119.597C212.638 119.598 212.992 119.481 213.283 119.262C213.574 119.044 213.785 118.736 213.885 118.386C213.985 118.036 213.969 117.663 213.838 117.324C213.707 116.984 213.469 116.697 213.16 116.505L213.176 116.495Z" fill="#8999A8"/>
<path d="M204.158 3.1759V5.28202H202.889V3.1759H201.053V2.00583H202.889V0H204.158V2.00583H205.995V3.14247H204.158V3.1759Z" fill="#657381"/>
<path d="M241.256 156.455V158.561H239.987V156.455H238.15V155.318H239.987V153.312H241.256V155.318H243.092V156.455H241.256Z" fill="#657381"/>
<path d="M3.17223 63.0832C2.54482 63.0832 1.9315 62.897 1.40983 62.548C0.888164 62.199 0.481571 61.703 0.241473 61.1227C0.00137447 60.5424 -0.0614462 59.9038 0.0609549 59.2878C0.183356 58.6717 0.485481 58.1058 0.929125 57.6616C1.37277 57.2175 1.93801 56.915 2.55336 56.7925C3.16871 56.6699 3.80654 56.7328 4.38619 56.9732C4.96584 57.2136 5.46127 57.6206 5.80984 58.1429C6.15841 58.6652 6.34446 59.2792 6.34446 59.9073C6.34446 60.7496 6.01024 61.5574 5.41533 62.153C4.82042 62.7486 4.01356 63.0832 3.17223 63.0832ZM3.17223 58.0018C2.78918 58.0018 2.41473 58.1155 2.09624 58.3286C1.77775 58.5416 1.52951 58.8445 1.38293 59.1988C1.23634 59.5531 1.19799 59.9429 1.27271 60.319C1.34744 60.6952 1.5319 61.0407 1.80276 61.3118C2.07361 61.583 2.4187 61.7677 2.79439 61.8425C3.17008 61.9173 3.55949 61.8789 3.91338 61.7321C4.26727 61.5854 4.56975 61.3369 4.78256 61.018C4.99537 60.6991 5.10896 60.3243 5.10896 59.9408C5.09707 59.4303 4.88921 58.944 4.52855 58.5829C4.16789 58.2218 3.68214 58.0137 3.17223 58.0018Z" fill="#657381"/>
<path d="M274.514 67.7634C273.887 67.7634 273.273 67.5772 272.752 67.2282C272.23 66.8792 271.823 66.3832 271.583 65.8029C271.343 65.2226 271.28 64.584 271.403 63.9679C271.525 63.3519 271.827 62.786 272.271 62.3418C272.715 61.8977 273.28 61.5952 273.895 61.4726C274.511 61.3501 275.148 61.413 275.728 61.6534C276.308 61.8937 276.803 62.3008 277.152 62.8231C277.5 63.3454 277.686 63.9594 277.686 64.5875C277.686 65.4298 277.352 66.2376 276.757 66.8332C276.162 67.4288 275.355 67.7634 274.514 67.7634ZM274.514 62.682C274.131 62.682 273.757 62.7957 273.438 63.0088C273.12 63.2218 272.871 63.5246 272.725 63.8789C272.578 64.2332 272.54 64.6231 272.615 64.9992C272.689 65.3753 272.874 65.7208 273.145 65.992C273.415 66.2632 273.761 66.4479 274.136 66.5227C274.512 66.5975 274.901 66.5591 275.255 66.4123C275.609 66.2656 275.912 66.0171 276.124 65.6982C276.337 65.3793 276.451 65.0044 276.451 64.621C276.453 64.3656 276.405 64.1122 276.309 63.8758C276.212 63.6393 276.07 63.4245 275.889 63.2439C275.709 63.0633 275.495 62.9206 275.258 62.8241C275.022 62.7276 274.769 62.6793 274.514 62.682Z" fill="#C2CBD5"/>
<path d="M233.83 99.9837C233.203 99.9837 232.59 99.7974 232.068 99.4484C231.546 99.0994 231.14 98.6034 230.9 98.0231C230.66 97.4428 230.597 96.8042 230.719 96.1882C230.842 95.5721 231.144 95.0062 231.587 94.562C232.031 94.1179 232.596 93.8154 233.212 93.6929C233.827 93.5703 234.465 93.6332 235.044 93.8736C235.624 94.114 236.119 94.521 236.468 95.0433C236.817 95.5656 237.003 96.1796 237.003 96.8077C237.003 97.65 236.668 98.4579 236.074 99.0535C235.479 99.6491 234.672 99.9837 233.83 99.9837ZM233.83 94.9022C233.447 94.9022 233.073 95.0159 232.754 95.229C232.436 95.442 232.188 95.7449 232.041 96.0992C231.895 96.4535 231.856 96.8433 231.931 97.2195C232.006 97.5956 232.19 97.9411 232.461 98.2122C232.732 98.4834 233.077 98.6681 233.453 98.7429C233.828 98.8177 234.218 98.7793 234.572 98.6326C234.925 98.4858 235.228 98.2373 235.441 97.9184C235.654 97.5996 235.767 97.2247 235.767 96.8412C235.767 96.3269 235.563 95.8337 235.2 95.4701C234.837 95.1065 234.344 94.9022 233.83 94.9022Z" fill="#C2CBD5"/>
<path d="M20.8698 168.858V166.751H22.1386V168.858H23.9752V169.994H22.1386V172H20.8698V169.994H19.0332V168.858H20.8698Z" fill="#657381"/>
<path d="M50.6078 138.449C51.2352 138.449 51.8485 138.635 52.3702 138.984C52.8918 139.333 53.2984 139.829 53.5385 140.41C53.7786 140.99 53.8414 141.629 53.719 142.245C53.5966 142.861 53.2945 143.427 52.8509 143.871C52.4072 144.315 51.842 144.617 51.2266 144.74C50.6113 144.862 49.9735 144.8 49.3938 144.559C48.8142 144.319 48.3187 143.912 47.9702 143.39C47.6216 142.867 47.4355 142.253 47.4355 141.625C47.4355 140.783 47.7698 139.975 48.3647 139.379C48.9596 138.784 49.7664 138.449 50.6078 138.449ZM50.6078 143.531C50.9908 143.531 51.3653 143.417 51.6838 143.204C52.0022 142.991 52.2505 142.688 52.3971 142.334C52.5437 141.979 52.582 141.59 52.5073 141.213C52.4325 140.837 52.2481 140.492 51.9772 140.221C51.7064 139.949 51.3613 139.765 50.9856 139.69C50.6099 139.615 50.2205 139.654 49.8666 139.8C49.5127 139.947 49.2103 140.196 48.9974 140.514C48.7846 140.833 48.671 141.208 48.671 141.592C48.671 142.106 48.8751 142.599 49.2383 142.963C49.6015 143.326 50.0941 143.531 50.6078 143.531Z" fill="#657381"/>
<path d="M34.0921 89.0591C34.7196 89.0591 35.3329 89.2453 35.8545 89.5943C36.3762 89.9433 36.7828 90.4393 37.0229 91.0196C37.263 91.5999 37.3258 92.2385 37.2034 92.8546C37.081 93.4706 36.7789 94.0365 36.3353 94.4807C35.8916 94.9249 35.3264 95.2273 34.711 95.3499C34.0957 95.4724 33.4578 95.4095 32.8782 95.1691C32.2985 94.9288 31.8031 94.5217 31.4545 93.9994C31.106 93.4772 30.9199 92.8631 30.9199 92.235C30.9199 91.3927 31.2541 90.5849 31.849 89.9893C32.444 89.3937 33.2508 89.0591 34.0921 89.0591ZM34.0921 94.1405C34.4752 94.1405 34.8496 94.0268 35.1681 93.8138C35.4866 93.6007 35.7349 93.2979 35.8815 92.9436C36.028 92.5893 36.0664 92.1994 35.9917 91.8233C35.9169 91.4472 35.7325 91.1017 35.4616 90.8305C35.1908 90.5593 34.8457 90.3747 34.47 90.2998C34.0943 90.225 33.7049 90.2634 33.351 90.4102C32.9971 90.5569 32.6946 90.8055 32.4818 91.1243C32.269 91.4432 32.1554 91.8181 32.1554 92.2016C32.1554 92.7158 32.3595 93.209 32.7227 93.5726C33.0859 93.9362 33.5785 94.1405 34.0921 94.1405Z" fill="#C2CBD5"/>
<path d="M39.2035 16.4478C39.8309 16.4478 40.4442 16.634 40.9659 16.983C41.4875 17.332 41.8941 17.828 42.1342 18.4083C42.3743 18.9886 42.4372 19.6272 42.3148 20.2432C42.1924 20.8593 41.8902 21.4252 41.4466 21.8693C41.0029 22.3135 40.4377 22.616 39.8223 22.7385C39.207 22.8611 38.5692 22.7982 37.9895 22.5578C37.4099 22.3174 36.9144 21.9104 36.5659 21.3881C36.2173 20.8658 36.0312 20.2518 36.0312 19.6237C36.0312 18.7814 36.3655 17.9735 36.9604 17.378C37.5553 16.7824 38.3622 16.4478 39.2035 16.4478ZM39.2035 21.5626C39.5865 21.5626 39.961 21.4489 40.2795 21.2358C40.598 21.0228 40.8462 20.72 40.9928 20.3657C41.1394 20.0114 41.1777 19.6215 41.103 19.2454C41.0283 18.8693 40.8438 18.5238 40.573 18.2526C40.3021 17.9814 39.957 17.7968 39.5813 17.7219C39.2056 17.6471 38.8162 17.6855 38.4623 17.8323C38.1084 17.979 37.806 18.2276 37.5931 18.5464C37.3803 18.8653 37.2667 19.2402 37.2667 19.6237C37.2667 20.1379 37.4708 20.6311 37.834 20.9947C38.1972 21.3583 38.6898 21.5626 39.2035 21.5626Z" fill="#C2CBD5"/>
<path d="M118.207 2.50374L124.885 31.5014C124.906 31.6628 124.867 31.8262 124.776 31.9611C124.685 32.0959 124.548 32.193 124.391 32.234C124.234 32.275 124.067 32.2571 123.922 32.1838C123.777 32.1105 123.663 31.9867 123.603 31.8357L114.988 3.36291C114.859 2.93821 114.905 2.47984 115.114 2.08862C115.323 1.69741 115.679 1.4054 116.103 1.27684C116.527 1.14828 116.985 1.19369 117.376 1.40309C117.767 1.61249 118.058 1.96872 118.187 2.39342L118.207 2.50374Z" fill="#4576b3"/>
<path d="M157.643 6.94342L146.29 31.3243C146.225 31.4799 146.1 31.6032 145.945 31.6672C145.789 31.7311 145.614 31.7305 145.458 31.6653C145.303 31.6001 145.18 31.4758 145.116 31.3197C145.052 31.1636 145.053 30.9885 145.118 30.8329L154.564 5.64965C154.72 5.23427 155.034 4.89788 155.438 4.7145C155.638 4.6237 155.854 4.5732 156.073 4.56587C156.292 4.55855 156.511 4.59455 156.716 4.67181C156.922 4.74908 157.11 4.8661 157.27 5.0162C157.431 5.16629 157.56 5.34652 157.65 5.54659C157.741 5.74667 157.792 5.96266 157.799 6.18226C157.806 6.40185 157.77 6.62073 157.693 6.82641C157.678 6.86625 157.662 6.90531 157.643 6.94342Z" fill="#4576b3"/>
<path d="M132.173 12.222L132.694 28.5361C132.695 28.6784 132.64 28.8154 132.542 28.9178C132.443 29.0203 132.308 29.08 132.166 29.0844C132.035 29.0872 131.907 29.043 131.805 28.9596C131.704 28.8762 131.635 28.7593 131.612 28.6297L128.85 12.5463C128.813 12.3294 128.819 12.1073 128.867 11.8927C128.916 11.6781 129.006 11.4751 129.133 11.2953C129.26 11.1156 129.421 10.9626 129.606 10.8451C129.792 10.7277 130 10.648 130.216 10.6107C130.433 10.5734 130.655 10.5791 130.869 10.6277C131.083 10.6762 131.286 10.7665 131.466 10.8935C131.645 11.0204 131.798 11.1816 131.915 11.3676C132.033 11.5537 132.112 11.7611 132.15 11.978C132.163 12.0587 132.171 12.1403 132.173 12.222Z" fill="#4576b3"/>
<path d="M144.533 13.0378L140.036 26.6942C139.998 26.7991 139.923 26.8865 139.825 26.9396C139.727 26.9928 139.613 27.008 139.504 26.9824C139.396 26.9568 139.3 26.8922 139.237 26.8008C139.173 26.7094 139.144 26.5977 139.157 26.4869L141.284 12.2689C141.35 11.8305 141.588 11.4363 141.944 11.1729C142.3 10.9096 142.747 10.7988 143.184 10.8649C143.622 10.9309 144.016 11.1684 144.279 11.5252C144.542 11.8819 144.653 12.3286 144.587 12.767C144.574 12.8582 144.556 12.9486 144.533 13.0378Z" fill="#4576b3"/>
</svg>
