<svg width="16" height="17" viewBox="0 0 16 17" fill="none" xmlns="http://www.w3.org/2000/svg">
<path d="M8 16.5C12.4183 16.5 16 12.9183 16 8.5C16 4.08172 12.4183 0.5 8 0.5C3.58172 0.5 0 4.08172 0 8.5C0 12.9183 3.58172 16.5 8 16.5Z" fill="#FFF9C4"/>
<path fill-rule="evenodd" clip-rule="evenodd" d="M8 15C11.5899 15 14.5 12.0899 14.5 8.5C14.5 4.91015 11.5899 2 8 2C4.41015 2 1.5 4.91015 1.5 8.5C1.5 12.0899 4.41015 15 8 15ZM16 8.5C16 12.9183 12.4183 16.5 8 16.5C3.58172 16.5 0 12.9183 0 8.5C0 4.08172 3.58172 0.5 8 0.5C12.4183 0.5 16 4.08172 16 8.5Z" fill="#F9A825"/>
<path fill-rule="evenodd" clip-rule="evenodd" d="M8 7.5C8.55228 7.5 9 7.94772 9 8.5V11.7C9 12.2523 8.55228 12.7 8 12.7C7.44772 12.7 7 12.2523 7 11.7V8.5C7 7.94772 7.44772 7.5 8 7.5Z" fill="#F9A825"/>
<path d="M9.06693 5.30007C9.06693 5.88917 8.58936 6.36673 8.00026 6.36673C7.41116 6.36673 6.93359 5.88917 6.93359 5.30007C6.93359 4.71096 7.41116 4.2334 8.00026 4.2334C8.58936 4.2334 9.06693 4.71096 9.06693 5.30007Z" fill="#F99E20"/>
</svg>
