<svg width="138" height="111" viewBox="0 0 138 111" fill="none" xmlns="http://www.w3.org/2000/svg">
<path d="M3 109.5C3 110.328 2.32843 111 1.5 111C0.671573 111 0 110.328 0 109.5C0 108.672 0.671573 108 1.5 108C2.32843 108 3 108.672 3 109.5Z" fill="#adcceb"/>
<path d="M12 109.5C12 110.328 11.3284 111 10.5 111C9.67157 111 9 110.328 9 109.5C9 108.672 9.67157 108 10.5 108C11.3284 108 12 108.672 12 109.5Z" fill="#adcceb"/>
<path d="M21 109.5C21 110.328 20.3284 111 19.5 111C18.6716 111 18 110.328 18 109.5C18 108.672 18.6716 108 19.5 108C20.3284 108 21 108.672 21 109.5Z" fill="#adcceb"/>
<path d="M30 109.5C30 110.328 29.3284 111 28.5 111C27.6716 111 27 110.328 27 109.5C27 108.672 27.6716 108 28.5 108C29.3284 108 30 108.672 30 109.5Z" fill="#adcceb"/>
<path d="M39 109.5C39 110.328 38.3284 111 37.5 111C36.6716 111 36 110.328 36 109.5C36 108.672 36.6716 108 37.5 108C38.3284 108 39 108.672 39 109.5Z" fill="#adcceb"/>
<path d="M48 109.5C48 110.328 47.3284 111 46.5 111C45.6716 111 45 110.328 45 109.5C45 108.672 45.6716 108 46.5 108C47.3284 108 48 108.672 48 109.5Z" fill="#adcceb"/>
<path d="M57 109.5C57 110.328 56.3284 111 55.5 111C54.6716 111 54 110.328 54 109.5C54 108.672 54.6716 108 55.5 108C56.3284 108 57 108.672 57 109.5Z" fill="#adcceb"/>
<path d="M66 109.5C66 110.328 65.3284 111 64.5 111C63.6716 111 63 110.328 63 109.5C63 108.672 63.6716 108 64.5 108C65.3284 108 66 108.672 66 109.5Z" fill="#adcceb"/>
<path d="M3 100.5C3 101.328 2.32843 102 1.5 102C0.671573 102 0 101.328 0 100.5C0 99.6716 0.671573 99 1.5 99C2.32843 99 3 99.6716 3 100.5Z" fill="#adcceb"/>
<path d="M12 100.5C12 101.328 11.3284 102 10.5 102C9.67157 102 9 101.328 9 100.5C9 99.6716 9.67157 99 10.5 99C11.3284 99 12 99.6716 12 100.5Z" fill="#adcceb"/>
<path d="M21 100.5C21 101.328 20.3284 102 19.5 102C18.6716 102 18 101.328 18 100.5C18 99.6716 18.6716 99 19.5 99C20.3284 99 21 99.6716 21 100.5Z" fill="#adcceb"/>
<path d="M30 100.5C30 101.328 29.3284 102 28.5 102C27.6716 102 27 101.328 27 100.5C27 99.6716 27.6716 99 28.5 99C29.3284 99 30 99.6716 30 100.5Z" fill="#adcceb"/>
<path d="M39 100.5C39 101.328 38.3284 102 37.5 102C36.6716 102 36 101.328 36 100.5C36 99.6716 36.6716 99 37.5 99C38.3284 99 39 99.6716 39 100.5Z" fill="#adcceb"/>
<path d="M48 100.5C48 101.328 47.3284 102 46.5 102C45.6716 102 45 101.328 45 100.5C45 99.6716 45.6716 99 46.5 99C47.3284 99 48 99.6716 48 100.5Z" fill="#adcceb"/>
<path d="M57 100.5C57 101.328 56.3284 102 55.5 102C54.6716 102 54 101.328 54 100.5C54 99.6716 54.6716 99 55.5 99C56.3284 99 57 99.6716 57 100.5Z" fill="#adcceb"/>
<path d="M66 100.5C66 101.328 65.3284 102 64.5 102C63.6716 102 63 101.328 63 100.5C63 99.6716 63.6716 99 64.5 99C65.3284 99 66 99.6716 66 100.5Z" fill="#adcceb"/>
<path d="M3 91.5C3 92.3284 2.32843 93 1.5 93C0.671573 93 0 92.3284 0 91.5C0 90.6716 0.671573 90 1.5 90C2.32843 90 3 90.6716 3 91.5Z" fill="#adcceb"/>
<path d="M12 91.5C12 92.3284 11.3284 93 10.5 93C9.67157 93 9 92.3284 9 91.5C9 90.6716 9.67157 90 10.5 90C11.3284 90 12 90.6716 12 91.5Z" fill="#adcceb"/>
<path d="M21 91.5C21 92.3284 20.3284 93 19.5 93C18.6716 93 18 92.3284 18 91.5C18 90.6716 18.6716 90 19.5 90C20.3284 90 21 90.6716 21 91.5Z" fill="#adcceb"/>
<path d="M30 91.5C30 92.3284 29.3284 93 28.5 93C27.6716 93 27 92.3284 27 91.5C27 90.6716 27.6716 90 28.5 90C29.3284 90 30 90.6716 30 91.5Z" fill="#adcceb"/>
<path d="M39 91.5C39 92.3284 38.3284 93 37.5 93C36.6716 93 36 92.3284 36 91.5C36 90.6716 36.6716 90 37.5 90C38.3284 90 39 90.6716 39 91.5Z" fill="#adcceb"/>
<path d="M48 91.5C48 92.3284 47.3284 93 46.5 93C45.6716 93 45 92.3284 45 91.5C45 90.6716 45.6716 90 46.5 90C47.3284 90 48 90.6716 48 91.5Z" fill="#adcceb"/>
<path d="M57 91.5C57 92.3284 56.3284 93 55.5 93C54.6716 93 54 92.3284 54 91.5C54 90.6716 54.6716 90 55.5 90C56.3284 90 57 90.6716 57 91.5Z" fill="#adcceb"/>
<path d="M66 91.5C66 92.3284 65.3284 93 64.5 93C63.6716 93 63 92.3284 63 91.5C63 90.6716 63.6716 90 64.5 90C65.3284 90 66 90.6716 66 91.5Z" fill="#adcceb"/>
<path d="M3 82.5C3 83.3284 2.32843 84 1.5 84C0.671573 84 0 83.3284 0 82.5C0 81.6716 0.671573 81 1.5 81C2.32843 81 3 81.6716 3 82.5Z" fill="#adcceb"/>
<path d="M12 82.5C12 83.3284 11.3284 84 10.5 84C9.67157 84 9 83.3284 9 82.5C9 81.6716 9.67157 81 10.5 81C11.3284 81 12 81.6716 12 82.5Z" fill="#adcceb"/>
<path d="M21 82.5C21 83.3284 20.3284 84 19.5 84C18.6716 84 18 83.3284 18 82.5C18 81.6716 18.6716 81 19.5 81C20.3284 81 21 81.6716 21 82.5Z" fill="#adcceb"/>
<path d="M30 82.5C30 83.3284 29.3284 84 28.5 84C27.6716 84 27 83.3284 27 82.5C27 81.6716 27.6716 81 28.5 81C29.3284 81 30 81.6716 30 82.5Z" fill="#adcceb"/>
<path d="M39 82.5C39 83.3284 38.3284 84 37.5 84C36.6716 84 36 83.3284 36 82.5C36 81.6716 36.6716 81 37.5 81C38.3284 81 39 81.6716 39 82.5Z" fill="#adcceb"/>
<path d="M48 82.5C48 83.3284 47.3284 84 46.5 84C45.6716 84 45 83.3284 45 82.5C45 81.6716 45.6716 81 46.5 81C47.3284 81 48 81.6716 48 82.5Z" fill="#adcceb"/>
<path d="M57 82.5C57 83.3284 56.3284 84 55.5 84C54.6716 84 54 83.3284 54 82.5C54 81.6716 54.6716 81 55.5 81C56.3284 81 57 81.6716 57 82.5Z" fill="#adcceb"/>
<path d="M66 82.5C66 83.3284 65.3284 84 64.5 84C63.6716 84 63 83.3284 63 82.5C63 81.6716 63.6716 81 64.5 81C65.3284 81 66 81.6716 66 82.5Z" fill="#adcceb"/>
<path d="M3 73.5C3 74.3284 2.32843 75 1.5 75C0.671573 75 0 74.3284 0 73.5C0 72.6716 0.671573 72 1.5 72C2.32843 72 3 72.6716 3 73.5Z" fill="#adcceb"/>
<path d="M12 73.5C12 74.3284 11.3284 75 10.5 75C9.67157 75 9 74.3284 9 73.5C9 72.6716 9.67157 72 10.5 72C11.3284 72 12 72.6716 12 73.5Z" fill="#adcceb"/>
<path d="M21 73.5C21 74.3284 20.3284 75 19.5 75C18.6716 75 18 74.3284 18 73.5C18 72.6716 18.6716 72 19.5 72C20.3284 72 21 72.6716 21 73.5Z" fill="#adcceb"/>
<path d="M30 73.5C30 74.3284 29.3284 75 28.5 75C27.6716 75 27 74.3284 27 73.5C27 72.6716 27.6716 72 28.5 72C29.3284 72 30 72.6716 30 73.5Z" fill="#adcceb"/>
<path d="M39 73.5C39 74.3284 38.3284 75 37.5 75C36.6716 75 36 74.3284 36 73.5C36 72.6716 36.6716 72 37.5 72C38.3284 72 39 72.6716 39 73.5Z" fill="#adcceb"/>
<path d="M48 73.5C48 74.3284 47.3284 75 46.5 75C45.6716 75 45 74.3284 45 73.5C45 72.6716 45.6716 72 46.5 72C47.3284 72 48 72.6716 48 73.5Z" fill="#adcceb"/>
<path d="M57 73.5C57 74.3284 56.3284 75 55.5 75C54.6716 75 54 74.3284 54 73.5C54 72.6716 54.6716 72 55.5 72C56.3284 72 57 72.6716 57 73.5Z" fill="#adcceb"/>
<path d="M66 73.5C66 74.3284 65.3284 75 64.5 75C63.6716 75 63 74.3284 63 73.5C63 72.6716 63.6716 72 64.5 72C65.3284 72 66 72.6716 66 73.5Z" fill="#adcceb"/>
<path d="M3 64.5C3 65.3284 2.32843 66 1.5 66C0.671573 66 0 65.3284 0 64.5C0 63.6716 0.671573 63 1.5 63C2.32843 63 3 63.6716 3 64.5Z" fill="#adcceb"/>
<path d="M12 64.5C12 65.3284 11.3284 66 10.5 66C9.67157 66 9 65.3284 9 64.5C9 63.6716 9.67157 63 10.5 63C11.3284 63 12 63.6716 12 64.5Z" fill="#adcceb"/>
<path d="M21 64.5C21 65.3284 20.3284 66 19.5 66C18.6716 66 18 65.3284 18 64.5C18 63.6716 18.6716 63 19.5 63C20.3284 63 21 63.6716 21 64.5Z" fill="#adcceb"/>
<path d="M30 64.5C30 65.3284 29.3284 66 28.5 66C27.6716 66 27 65.3284 27 64.5C27 63.6716 27.6716 63 28.5 63C29.3284 63 30 63.6716 30 64.5Z" fill="#adcceb"/>
<path d="M39 64.5C39 65.3284 38.3284 66 37.5 66C36.6716 66 36 65.3284 36 64.5C36 63.6716 36.6716 63 37.5 63C38.3284 63 39 63.6716 39 64.5Z" fill="#adcceb"/>
<path d="M48 64.5C48 65.3284 47.3284 66 46.5 66C45.6716 66 45 65.3284 45 64.5C45 63.6716 45.6716 63 46.5 63C47.3284 63 48 63.6716 48 64.5Z" fill="#adcceb"/>
<path d="M57 64.5C57 65.3284 56.3284 66 55.5 66C54.6716 66 54 65.3284 54 64.5C54 63.6716 54.6716 63 55.5 63C56.3284 63 57 63.6716 57 64.5Z" fill="#adcceb"/>
<path d="M66 64.5C66 65.3284 65.3284 66 64.5 66C63.6716 66 63 65.3284 63 64.5C63 63.6716 63.6716 63 64.5 63C65.3284 63 66 63.6716 66 64.5Z" fill="#adcceb"/>
<path d="M3 55.5C3 56.3284 2.32843 57 1.5 57C0.671573 57 0 56.3284 0 55.5C0 54.6716 0.671573 54 1.5 54C2.32843 54 3 54.6716 3 55.5Z" fill="#adcceb"/>
<path d="M12 55.5C12 56.3284 11.3284 57 10.5 57C9.67157 57 9 56.3284 9 55.5C9 54.6716 9.67157 54 10.5 54C11.3284 54 12 54.6716 12 55.5Z" fill="#adcceb"/>
<path d="M21 55.5C21 56.3284 20.3284 57 19.5 57C18.6716 57 18 56.3284 18 55.5C18 54.6716 18.6716 54 19.5 54C20.3284 54 21 54.6716 21 55.5Z" fill="#adcceb"/>
<path d="M30 55.5C30 56.3284 29.3284 57 28.5 57C27.6716 57 27 56.3284 27 55.5C27 54.6716 27.6716 54 28.5 54C29.3284 54 30 54.6716 30 55.5Z" fill="#adcceb"/>
<path d="M39 55.5C39 56.3284 38.3284 57 37.5 57C36.6716 57 36 56.3284 36 55.5C36 54.6716 36.6716 54 37.5 54C38.3284 54 39 54.6716 39 55.5Z" fill="#adcceb"/>
<path d="M48 55.5C48 56.3284 47.3284 57 46.5 57C45.6716 57 45 56.3284 45 55.5C45 54.6716 45.6716 54 46.5 54C47.3284 54 48 54.6716 48 55.5Z" fill="#adcceb"/>
<path d="M57 55.5C57 56.3284 56.3284 57 55.5 57C54.6716 57 54 56.3284 54 55.5C54 54.6716 54.6716 54 55.5 54C56.3284 54 57 54.6716 57 55.5Z" fill="#adcceb"/>
<path d="M66 55.5C66 56.3284 65.3284 57 64.5 57C63.6716 57 63 56.3284 63 55.5C63 54.6716 63.6716 54 64.5 54C65.3284 54 66 54.6716 66 55.5Z" fill="#adcceb"/>
<path d="M3 46.5C3 47.3284 2.32843 48 1.5 48C0.671573 48 0 47.3284 0 46.5C0 45.6716 0.671573 45 1.5 45C2.32843 45 3 45.6716 3 46.5Z" fill="#adcceb"/>
<path d="M12 46.5C12 47.3284 11.3284 48 10.5 48C9.67157 48 9 47.3284 9 46.5C9 45.6716 9.67157 45 10.5 45C11.3284 45 12 45.6716 12 46.5Z" fill="#adcceb"/>
<path d="M21 46.5C21 47.3284 20.3284 48 19.5 48C18.6716 48 18 47.3284 18 46.5C18 45.6716 18.6716 45 19.5 45C20.3284 45 21 45.6716 21 46.5Z" fill="#adcceb"/>
<path d="M30 46.5C30 47.3284 29.3284 48 28.5 48C27.6716 48 27 47.3284 27 46.5C27 45.6716 27.6716 45 28.5 45C29.3284 45 30 45.6716 30 46.5Z" fill="#adcceb"/>
<path d="M39 46.5C39 47.3284 38.3284 48 37.5 48C36.6716 48 36 47.3284 36 46.5C36 45.6716 36.6716 45 37.5 45C38.3284 45 39 45.6716 39 46.5Z" fill="#adcceb"/>
<path d="M48 46.5C48 47.3284 47.3284 48 46.5 48C45.6716 48 45 47.3284 45 46.5C45 45.6716 45.6716 45 46.5 45C47.3284 45 48 45.6716 48 46.5Z" fill="#adcceb"/>
<path d="M57 46.5C57 47.3284 56.3284 48 55.5 48C54.6716 48 54 47.3284 54 46.5C54 45.6716 54.6716 45 55.5 45C56.3284 45 57 45.6716 57 46.5Z" fill="#adcceb"/>
<path d="M66 46.5C66 47.3284 65.3284 48 64.5 48C63.6716 48 63 47.3284 63 46.5C63 45.6716 63.6716 45 64.5 45C65.3284 45 66 45.6716 66 46.5Z" fill="#adcceb"/>
<path d="M3 37.5C3 38.3284 2.32843 39 1.5 39C0.671573 39 0 38.3284 0 37.5C0 36.6716 0.671573 36 1.5 36C2.32843 36 3 36.6716 3 37.5Z" fill="#adcceb"/>
<path d="M12 37.5C12 38.3284 11.3284 39 10.5 39C9.67157 39 9 38.3284 9 37.5C9 36.6716 9.67157 36 10.5 36C11.3284 36 12 36.6716 12 37.5Z" fill="#adcceb"/>
<path d="M21 37.5C21 38.3284 20.3284 39 19.5 39C18.6716 39 18 38.3284 18 37.5C18 36.6716 18.6716 36 19.5 36C20.3284 36 21 36.6716 21 37.5Z" fill="#adcceb"/>
<path d="M30 37.5C30 38.3284 29.3284 39 28.5 39C27.6716 39 27 38.3284 27 37.5C27 36.6716 27.6716 36 28.5 36C29.3284 36 30 36.6716 30 37.5Z" fill="#adcceb"/>
<path d="M39 37.5C39 38.3284 38.3284 39 37.5 39C36.6716 39 36 38.3284 36 37.5C36 36.6716 36.6716 36 37.5 36C38.3284 36 39 36.6716 39 37.5Z" fill="#adcceb"/>
<path d="M48 37.5C48 38.3284 47.3284 39 46.5 39C45.6716 39 45 38.3284 45 37.5C45 36.6716 45.6716 36 46.5 36C47.3284 36 48 36.6716 48 37.5Z" fill="#adcceb"/>
<path d="M57 37.5C57 38.3284 56.3284 39 55.5 39C54.6716 39 54 38.3284 54 37.5C54 36.6716 54.6716 36 55.5 36C56.3284 36 57 36.6716 57 37.5Z" fill="#adcceb"/>
<path d="M66 37.5C66 38.3284 65.3284 39 64.5 39C63.6716 39 63 38.3284 63 37.5C63 36.6716 63.6716 36 64.5 36C65.3284 36 66 36.6716 66 37.5Z" fill="#adcceb"/>
<path d="M75 109.5C75 110.328 74.3284 111 73.5 111C72.6716 111 72 110.328 72 109.5C72 108.672 72.6716 108 73.5 108C74.3284 108 75 108.672 75 109.5Z" fill="#adcceb"/>
<path d="M84 109.5C84 110.328 83.3284 111 82.5 111C81.6716 111 81 110.328 81 109.5C81 108.672 81.6716 108 82.5 108C83.3284 108 84 108.672 84 109.5Z" fill="#adcceb"/>
<path d="M93 109.5C93 110.328 92.3284 111 91.5 111C90.6716 111 90 110.328 90 109.5C90 108.672 90.6716 108 91.5 108C92.3284 108 93 108.672 93 109.5Z" fill="#adcceb"/>
<path d="M102 109.5C102 110.328 101.328 111 100.5 111C99.6716 111 99 110.328 99 109.5C99 108.672 99.6716 108 100.5 108C101.328 108 102 108.672 102 109.5Z" fill="#adcceb"/>
<path d="M111 109.5C111 110.328 110.328 111 109.5 111C108.672 111 108 110.328 108 109.5C108 108.672 108.672 108 109.5 108C110.328 108 111 108.672 111 109.5Z" fill="#adcceb"/>
<path d="M120 109.5C120 110.328 119.328 111 118.5 111C117.672 111 117 110.328 117 109.5C117 108.672 117.672 108 118.5 108C119.328 108 120 108.672 120 109.5Z" fill="#adcceb"/>
<path d="M129 109.5C129 110.328 128.328 111 127.5 111C126.672 111 126 110.328 126 109.5C126 108.672 126.672 108 127.5 108C128.328 108 129 108.672 129 109.5Z" fill="#adcceb"/>
<path d="M138 109.5C138 110.328 137.328 111 136.5 111C135.672 111 135 110.328 135 109.5C135 108.672 135.672 108 136.5 108C137.328 108 138 108.672 138 109.5Z" fill="#adcceb"/>
<path d="M75 100.5C75 101.328 74.3284 102 73.5 102C72.6716 102 72 101.328 72 100.5C72 99.6716 72.6716 99 73.5 99C74.3284 99 75 99.6716 75 100.5Z" fill="#adcceb"/>
<path d="M84 100.5C84 101.328 83.3284 102 82.5 102C81.6716 102 81 101.328 81 100.5C81 99.6716 81.6716 99 82.5 99C83.3284 99 84 99.6716 84 100.5Z" fill="#adcceb"/>
<path d="M93 100.5C93 101.328 92.3284 102 91.5 102C90.6716 102 90 101.328 90 100.5C90 99.6716 90.6716 99 91.5 99C92.3284 99 93 99.6716 93 100.5Z" fill="#adcceb"/>
<path d="M102 100.5C102 101.328 101.328 102 100.5 102C99.6716 102 99 101.328 99 100.5C99 99.6716 99.6716 99 100.5 99C101.328 99 102 99.6716 102 100.5Z" fill="#adcceb"/>
<path d="M111 100.5C111 101.328 110.328 102 109.5 102C108.672 102 108 101.328 108 100.5C108 99.6716 108.672 99 109.5 99C110.328 99 111 99.6716 111 100.5Z" fill="#adcceb"/>
<path d="M120 100.5C120 101.328 119.328 102 118.5 102C117.672 102 117 101.328 117 100.5C117 99.6716 117.672 99 118.5 99C119.328 99 120 99.6716 120 100.5Z" fill="#adcceb"/>
<path d="M129 100.5C129 101.328 128.328 102 127.5 102C126.672 102 126 101.328 126 100.5C126 99.6716 126.672 99 127.5 99C128.328 99 129 99.6716 129 100.5Z" fill="#adcceb"/>
<path d="M138 100.5C138 101.328 137.328 102 136.5 102C135.672 102 135 101.328 135 100.5C135 99.6716 135.672 99 136.5 99C137.328 99 138 99.6716 138 100.5Z" fill="#adcceb"/>
<path d="M75 91.5C75 92.3284 74.3284 93 73.5 93C72.6716 93 72 92.3284 72 91.5C72 90.6716 72.6716 90 73.5 90C74.3284 90 75 90.6716 75 91.5Z" fill="#adcceb"/>
<path d="M84 91.5C84 92.3284 83.3284 93 82.5 93C81.6716 93 81 92.3284 81 91.5C81 90.6716 81.6716 90 82.5 90C83.3284 90 84 90.6716 84 91.5Z" fill="#adcceb"/>
<path d="M93 91.5C93 92.3284 92.3284 93 91.5 93C90.6716 93 90 92.3284 90 91.5C90 90.6716 90.6716 90 91.5 90C92.3284 90 93 90.6716 93 91.5Z" fill="#adcceb"/>
<path d="M102 91.5C102 92.3284 101.328 93 100.5 93C99.6716 93 99 92.3284 99 91.5C99 90.6716 99.6716 90 100.5 90C101.328 90 102 90.6716 102 91.5Z" fill="#adcceb"/>
<path d="M111 91.5C111 92.3284 110.328 93 109.5 93C108.672 93 108 92.3284 108 91.5C108 90.6716 108.672 90 109.5 90C110.328 90 111 90.6716 111 91.5Z" fill="#adcceb"/>
<path d="M120 91.5C120 92.3284 119.328 93 118.5 93C117.672 93 117 92.3284 117 91.5C117 90.6716 117.672 90 118.5 90C119.328 90 120 90.6716 120 91.5Z" fill="#adcceb"/>
<path d="M129 91.5C129 92.3284 128.328 93 127.5 93C126.672 93 126 92.3284 126 91.5C126 90.6716 126.672 90 127.5 90C128.328 90 129 90.6716 129 91.5Z" fill="#adcceb"/>
<path d="M138 91.5C138 92.3284 137.328 93 136.5 93C135.672 93 135 92.3284 135 91.5C135 90.6716 135.672 90 136.5 90C137.328 90 138 90.6716 138 91.5Z" fill="#adcceb"/>
<path d="M75 82.5C75 83.3284 74.3284 84 73.5 84C72.6716 84 72 83.3284 72 82.5C72 81.6716 72.6716 81 73.5 81C74.3284 81 75 81.6716 75 82.5Z" fill="#adcceb"/>
<path d="M84 82.5C84 83.3284 83.3284 84 82.5 84C81.6716 84 81 83.3284 81 82.5C81 81.6716 81.6716 81 82.5 81C83.3284 81 84 81.6716 84 82.5Z" fill="#adcceb"/>
<path d="M93 82.5C93 83.3284 92.3284 84 91.5 84C90.6716 84 90 83.3284 90 82.5C90 81.6716 90.6716 81 91.5 81C92.3284 81 93 81.6716 93 82.5Z" fill="#adcceb"/>
<path d="M102 82.5C102 83.3284 101.328 84 100.5 84C99.6716 84 99 83.3284 99 82.5C99 81.6716 99.6716 81 100.5 81C101.328 81 102 81.6716 102 82.5Z" fill="#adcceb"/>
<path d="M111 82.5C111 83.3284 110.328 84 109.5 84C108.672 84 108 83.3284 108 82.5C108 81.6716 108.672 81 109.5 81C110.328 81 111 81.6716 111 82.5Z" fill="#adcceb"/>
<path d="M120 82.5C120 83.3284 119.328 84 118.5 84C117.672 84 117 83.3284 117 82.5C117 81.6716 117.672 81 118.5 81C119.328 81 120 81.6716 120 82.5Z" fill="#adcceb"/>
<path d="M129 82.5C129 83.3284 128.328 84 127.5 84C126.672 84 126 83.3284 126 82.5C126 81.6716 126.672 81 127.5 81C128.328 81 129 81.6716 129 82.5Z" fill="#adcceb"/>
<path d="M138 82.5C138 83.3284 137.328 84 136.5 84C135.672 84 135 83.3284 135 82.5C135 81.6716 135.672 81 136.5 81C137.328 81 138 81.6716 138 82.5Z" fill="#adcceb"/>
<path d="M75 73.5C75 74.3284 74.3284 75 73.5 75C72.6716 75 72 74.3284 72 73.5C72 72.6716 72.6716 72 73.5 72C74.3284 72 75 72.6716 75 73.5Z" fill="#adcceb"/>
<path d="M84 73.5C84 74.3284 83.3284 75 82.5 75C81.6716 75 81 74.3284 81 73.5C81 72.6716 81.6716 72 82.5 72C83.3284 72 84 72.6716 84 73.5Z" fill="#adcceb"/>
<path d="M93 73.5C93 74.3284 92.3284 75 91.5 75C90.6716 75 90 74.3284 90 73.5C90 72.6716 90.6716 72 91.5 72C92.3284 72 93 72.6716 93 73.5Z" fill="#adcceb"/>
<path d="M102 73.5C102 74.3284 101.328 75 100.5 75C99.6716 75 99 74.3284 99 73.5C99 72.6716 99.6716 72 100.5 72C101.328 72 102 72.6716 102 73.5Z" fill="#adcceb"/>
<path d="M111 73.5C111 74.3284 110.328 75 109.5 75C108.672 75 108 74.3284 108 73.5C108 72.6716 108.672 72 109.5 72C110.328 72 111 72.6716 111 73.5Z" fill="#adcceb"/>
<path d="M120 73.5C120 74.3284 119.328 75 118.5 75C117.672 75 117 74.3284 117 73.5C117 72.6716 117.672 72 118.5 72C119.328 72 120 72.6716 120 73.5Z" fill="#adcceb"/>
<path d="M129 73.5C129 74.3284 128.328 75 127.5 75C126.672 75 126 74.3284 126 73.5C126 72.6716 126.672 72 127.5 72C128.328 72 129 72.6716 129 73.5Z" fill="#adcceb"/>
<path d="M138 73.5C138 74.3284 137.328 75 136.5 75C135.672 75 135 74.3284 135 73.5C135 72.6716 135.672 72 136.5 72C137.328 72 138 72.6716 138 73.5Z" fill="#adcceb"/>
<path d="M75 64.5C75 65.3284 74.3284 66 73.5 66C72.6716 66 72 65.3284 72 64.5C72 63.6716 72.6716 63 73.5 63C74.3284 63 75 63.6716 75 64.5Z" fill="#adcceb"/>
<path d="M84 64.5C84 65.3284 83.3284 66 82.5 66C81.6716 66 81 65.3284 81 64.5C81 63.6716 81.6716 63 82.5 63C83.3284 63 84 63.6716 84 64.5Z" fill="#adcceb"/>
<path d="M93 64.5C93 65.3284 92.3284 66 91.5 66C90.6716 66 90 65.3284 90 64.5C90 63.6716 90.6716 63 91.5 63C92.3284 63 93 63.6716 93 64.5Z" fill="#adcceb"/>
<path d="M102 64.5C102 65.3284 101.328 66 100.5 66C99.6716 66 99 65.3284 99 64.5C99 63.6716 99.6716 63 100.5 63C101.328 63 102 63.6716 102 64.5Z" fill="#adcceb"/>
<path d="M111 64.5C111 65.3284 110.328 66 109.5 66C108.672 66 108 65.3284 108 64.5C108 63.6716 108.672 63 109.5 63C110.328 63 111 63.6716 111 64.5Z" fill="#adcceb"/>
<path d="M120 64.5C120 65.3284 119.328 66 118.5 66C117.672 66 117 65.3284 117 64.5C117 63.6716 117.672 63 118.5 63C119.328 63 120 63.6716 120 64.5Z" fill="#adcceb"/>
<path d="M129 64.5C129 65.3284 128.328 66 127.5 66C126.672 66 126 65.3284 126 64.5C126 63.6716 126.672 63 127.5 63C128.328 63 129 63.6716 129 64.5Z" fill="#adcceb"/>
<path d="M138 64.5C138 65.3284 137.328 66 136.5 66C135.672 66 135 65.3284 135 64.5C135 63.6716 135.672 63 136.5 63C137.328 63 138 63.6716 138 64.5Z" fill="#adcceb"/>
<path d="M75 55.5C75 56.3284 74.3284 57 73.5 57C72.6716 57 72 56.3284 72 55.5C72 54.6716 72.6716 54 73.5 54C74.3284 54 75 54.6716 75 55.5Z" fill="#adcceb"/>
<path d="M84 55.5C84 56.3284 83.3284 57 82.5 57C81.6716 57 81 56.3284 81 55.5C81 54.6716 81.6716 54 82.5 54C83.3284 54 84 54.6716 84 55.5Z" fill="#adcceb"/>
<path d="M93 55.5C93 56.3284 92.3284 57 91.5 57C90.6716 57 90 56.3284 90 55.5C90 54.6716 90.6716 54 91.5 54C92.3284 54 93 54.6716 93 55.5Z" fill="#adcceb"/>
<path d="M102 55.5C102 56.3284 101.328 57 100.5 57C99.6716 57 99 56.3284 99 55.5C99 54.6716 99.6716 54 100.5 54C101.328 54 102 54.6716 102 55.5Z" fill="#adcceb"/>
<path d="M111 55.5C111 56.3284 110.328 57 109.5 57C108.672 57 108 56.3284 108 55.5C108 54.6716 108.672 54 109.5 54C110.328 54 111 54.6716 111 55.5Z" fill="#adcceb"/>
<path d="M120 55.5C120 56.3284 119.328 57 118.5 57C117.672 57 117 56.3284 117 55.5C117 54.6716 117.672 54 118.5 54C119.328 54 120 54.6716 120 55.5Z" fill="#adcceb"/>
<path d="M129 55.5C129 56.3284 128.328 57 127.5 57C126.672 57 126 56.3284 126 55.5C126 54.6716 126.672 54 127.5 54C128.328 54 129 54.6716 129 55.5Z" fill="#adcceb"/>
<path d="M138 55.5C138 56.3284 137.328 57 136.5 57C135.672 57 135 56.3284 135 55.5C135 54.6716 135.672 54 136.5 54C137.328 54 138 54.6716 138 55.5Z" fill="#adcceb"/>
<path d="M75 46.5C75 47.3284 74.3284 48 73.5 48C72.6716 48 72 47.3284 72 46.5C72 45.6716 72.6716 45 73.5 45C74.3284 45 75 45.6716 75 46.5Z" fill="#adcceb"/>
<path d="M84 46.5C84 47.3284 83.3284 48 82.5 48C81.6716 48 81 47.3284 81 46.5C81 45.6716 81.6716 45 82.5 45C83.3284 45 84 45.6716 84 46.5Z" fill="#adcceb"/>
<path d="M93 46.5C93 47.3284 92.3284 48 91.5 48C90.6716 48 90 47.3284 90 46.5C90 45.6716 90.6716 45 91.5 45C92.3284 45 93 45.6716 93 46.5Z" fill="#adcceb"/>
<path d="M102 46.5C102 47.3284 101.328 48 100.5 48C99.6716 48 99 47.3284 99 46.5C99 45.6716 99.6716 45 100.5 45C101.328 45 102 45.6716 102 46.5Z" fill="#adcceb"/>
<path d="M111 46.5C111 47.3284 110.328 48 109.5 48C108.672 48 108 47.3284 108 46.5C108 45.6716 108.672 45 109.5 45C110.328 45 111 45.6716 111 46.5Z" fill="#adcceb"/>
<path d="M120 46.5C120 47.3284 119.328 48 118.5 48C117.672 48 117 47.3284 117 46.5C117 45.6716 117.672 45 118.5 45C119.328 45 120 45.6716 120 46.5Z" fill="#adcceb"/>
<path d="M129 46.5C129 47.3284 128.328 48 127.5 48C126.672 48 126 47.3284 126 46.5C126 45.6716 126.672 45 127.5 45C128.328 45 129 45.6716 129 46.5Z" fill="#adcceb"/>
<path d="M138 46.5C138 47.3284 137.328 48 136.5 48C135.672 48 135 47.3284 135 46.5C135 45.6716 135.672 45 136.5 45C137.328 45 138 45.6716 138 46.5Z" fill="#adcceb"/>
<path d="M75 37.5C75 38.3284 74.3284 39 73.5 39C72.6716 39 72 38.3284 72 37.5C72 36.6716 72.6716 36 73.5 36C74.3284 36 75 36.6716 75 37.5Z" fill="#adcceb"/>
<path d="M84 37.5C84 38.3284 83.3284 39 82.5 39C81.6716 39 81 38.3284 81 37.5C81 36.6716 81.6716 36 82.5 36C83.3284 36 84 36.6716 84 37.5Z" fill="#adcceb"/>
<path d="M93 37.5C93 38.3284 92.3284 39 91.5 39C90.6716 39 90 38.3284 90 37.5C90 36.6716 90.6716 36 91.5 36C92.3284 36 93 36.6716 93 37.5Z" fill="#adcceb"/>
<path d="M102 37.5C102 38.3284 101.328 39 100.5 39C99.6716 39 99 38.3284 99 37.5C99 36.6716 99.6716 36 100.5 36C101.328 36 102 36.6716 102 37.5Z" fill="#adcceb"/>
<path d="M111 37.5C111 38.3284 110.328 39 109.5 39C108.672 39 108 38.3284 108 37.5C108 36.6716 108.672 36 109.5 36C110.328 36 111 36.6716 111 37.5Z" fill="#adcceb"/>
<path d="M120 37.5C120 38.3284 119.328 39 118.5 39C117.672 39 117 38.3284 117 37.5C117 36.6716 117.672 36 118.5 36C119.328 36 120 36.6716 120 37.5Z" fill="#adcceb"/>
<path d="M129 37.5C129 38.3284 128.328 39 127.5 39C126.672 39 126 38.3284 126 37.5C126 36.6716 126.672 36 127.5 36C128.328 36 129 36.6716 129 37.5Z" fill="#adcceb"/>
<path d="M138 37.5C138 38.3284 137.328 39 136.5 39C135.672 39 135 38.3284 135 37.5C135 36.6716 135.672 36 136.5 36C137.328 36 138 36.6716 138 37.5Z" fill="#adcceb"/>
<path d="M3 28.5C3 29.3284 2.32843 30 1.5 30C0.671573 30 0 29.3284 0 28.5C0 27.6716 0.671573 27 1.5 27C2.32843 27 3 27.6716 3 28.5Z" fill="#adcceb"/>
<path d="M12 28.5C12 29.3284 11.3284 30 10.5 30C9.67157 30 9 29.3284 9 28.5C9 27.6716 9.67157 27 10.5 27C11.3284 27 12 27.6716 12 28.5Z" fill="#adcceb"/>
<path d="M21 28.5C21 29.3284 20.3284 30 19.5 30C18.6716 30 18 29.3284 18 28.5C18 27.6716 18.6716 27 19.5 27C20.3284 27 21 27.6716 21 28.5Z" fill="#adcceb"/>
<path d="M30 28.5C30 29.3284 29.3284 30 28.5 30C27.6716 30 27 29.3284 27 28.5C27 27.6716 27.6716 27 28.5 27C29.3284 27 30 27.6716 30 28.5Z" fill="#adcceb"/>
<path d="M39 28.5C39 29.3284 38.3284 30 37.5 30C36.6716 30 36 29.3284 36 28.5C36 27.6716 36.6716 27 37.5 27C38.3284 27 39 27.6716 39 28.5Z" fill="#adcceb"/>
<path d="M48 28.5C48 29.3284 47.3284 30 46.5 30C45.6716 30 45 29.3284 45 28.5C45 27.6716 45.6716 27 46.5 27C47.3284 27 48 27.6716 48 28.5Z" fill="#adcceb"/>
<path d="M57 28.5C57 29.3284 56.3284 30 55.5 30C54.6716 30 54 29.3284 54 28.5C54 27.6716 54.6716 27 55.5 27C56.3284 27 57 27.6716 57 28.5Z" fill="#adcceb"/>
<path d="M66 28.5C66 29.3284 65.3284 30 64.5 30C63.6716 30 63 29.3284 63 28.5C63 27.6716 63.6716 27 64.5 27C65.3284 27 66 27.6716 66 28.5Z" fill="#adcceb"/>
<path d="M3 19.5C3 20.3284 2.32843 21 1.5 21C0.671573 21 0 20.3284 0 19.5C0 18.6716 0.671573 18 1.5 18C2.32843 18 3 18.6716 3 19.5Z" fill="#adcceb"/>
<path d="M12 19.5C12 20.3284 11.3284 21 10.5 21C9.67157 21 9 20.3284 9 19.5C9 18.6716 9.67157 18 10.5 18C11.3284 18 12 18.6716 12 19.5Z" fill="#adcceb"/>
<path d="M21 19.5C21 20.3284 20.3284 21 19.5 21C18.6716 21 18 20.3284 18 19.5C18 18.6716 18.6716 18 19.5 18C20.3284 18 21 18.6716 21 19.5Z" fill="#adcceb"/>
<path d="M30 19.5C30 20.3284 29.3284 21 28.5 21C27.6716 21 27 20.3284 27 19.5C27 18.6716 27.6716 18 28.5 18C29.3284 18 30 18.6716 30 19.5Z" fill="#adcceb"/>
<path d="M39 19.5C39 20.3284 38.3284 21 37.5 21C36.6716 21 36 20.3284 36 19.5C36 18.6716 36.6716 18 37.5 18C38.3284 18 39 18.6716 39 19.5Z" fill="#adcceb"/>
<path d="M48 19.5C48 20.3284 47.3284 21 46.5 21C45.6716 21 45 20.3284 45 19.5C45 18.6716 45.6716 18 46.5 18C47.3284 18 48 18.6716 48 19.5Z" fill="#adcceb"/>
<path d="M57 19.5C57 20.3284 56.3284 21 55.5 21C54.6716 21 54 20.3284 54 19.5C54 18.6716 54.6716 18 55.5 18C56.3284 18 57 18.6716 57 19.5Z" fill="#adcceb"/>
<path d="M66 19.5C66 20.3284 65.3284 21 64.5 21C63.6716 21 63 20.3284 63 19.5C63 18.6716 63.6716 18 64.5 18C65.3284 18 66 18.6716 66 19.5Z" fill="#adcceb"/>
<path d="M3 10.5C3 11.3284 2.32843 12 1.5 12C0.671573 12 0 11.3284 0 10.5C0 9.67157 0.671573 9 1.5 9C2.32843 9 3 9.67157 3 10.5Z" fill="#adcceb"/>
<path d="M12 10.5C12 11.3284 11.3284 12 10.5 12C9.67157 12 9 11.3284 9 10.5C9 9.67157 9.67157 9 10.5 9C11.3284 9 12 9.67157 12 10.5Z" fill="#adcceb"/>
<path d="M21 10.5C21 11.3284 20.3284 12 19.5 12C18.6716 12 18 11.3284 18 10.5C18 9.67157 18.6716 9 19.5 9C20.3284 9 21 9.67157 21 10.5Z" fill="#adcceb"/>
<path d="M30 10.5C30 11.3284 29.3284 12 28.5 12C27.6716 12 27 11.3284 27 10.5C27 9.67157 27.6716 9 28.5 9C29.3284 9 30 9.67157 30 10.5Z" fill="#adcceb"/>
<path d="M39 10.5C39 11.3284 38.3284 12 37.5 12C36.6716 12 36 11.3284 36 10.5C36 9.67157 36.6716 9 37.5 9C38.3284 9 39 9.67157 39 10.5Z" fill="#adcceb"/>
<path d="M48 10.5C48 11.3284 47.3284 12 46.5 12C45.6716 12 45 11.3284 45 10.5C45 9.67157 45.6716 9 46.5 9C47.3284 9 48 9.67157 48 10.5Z" fill="#adcceb"/>
<path d="M57 10.5C57 11.3284 56.3284 12 55.5 12C54.6716 12 54 11.3284 54 10.5C54 9.67157 54.6716 9 55.5 9C56.3284 9 57 9.67157 57 10.5Z" fill="#adcceb"/>
<path d="M66 10.5C66 11.3284 65.3284 12 64.5 12C63.6716 12 63 11.3284 63 10.5C63 9.67157 63.6716 9 64.5 9C65.3284 9 66 9.67157 66 10.5Z" fill="#adcceb"/>
<path d="M3 1.5C3 2.32843 2.32843 3 1.5 3C0.671573 3 0 2.32843 0 1.5C0 0.671573 0.671573 0 1.5 0C2.32843 0 3 0.671573 3 1.5Z" fill="#adcceb"/>
<path d="M12 1.5C12 2.32843 11.3284 3 10.5 3C9.67157 3 9 2.32843 9 1.5C9 0.671573 9.67157 0 10.5 0C11.3284 0 12 0.671573 12 1.5Z" fill="#adcceb"/>
<path d="M21 1.5C21 2.32843 20.3284 3 19.5 3C18.6716 3 18 2.32843 18 1.5C18 0.671573 18.6716 0 19.5 0C20.3284 0 21 0.671573 21 1.5Z" fill="#adcceb"/>
<path d="M30 1.5C30 2.32843 29.3284 3 28.5 3C27.6716 3 27 2.32843 27 1.5C27 0.671573 27.6716 0 28.5 0C29.3284 0 30 0.671573 30 1.5Z" fill="#adcceb"/>
<path d="M39 1.5C39 2.32843 38.3284 3 37.5 3C36.6716 3 36 2.32843 36 1.5C36 0.671573 36.6716 0 37.5 0C38.3284 0 39 0.671573 39 1.5Z" fill="#adcceb"/>
<path d="M48 1.5C48 2.32843 47.3284 3 46.5 3C45.6716 3 45 2.32843 45 1.5C45 0.671573 45.6716 0 46.5 0C47.3284 0 48 0.671573 48 1.5Z" fill="#adcceb"/>
<path d="M57 1.5C57 2.32843 56.3284 3 55.5 3C54.6716 3 54 2.32843 54 1.5C54 0.671573 54.6716 0 55.5 0C56.3284 0 57 0.671573 57 1.5Z" fill="#adcceb"/>
<path d="M66 1.5C66 2.32843 65.3284 3 64.5 3C63.6716 3 63 2.32843 63 1.5C63 0.671573 63.6716 0 64.5 0C65.3284 0 66 0.671573 66 1.5Z" fill="#adcceb"/>
<path d="M75 28.5C75 29.3284 74.3284 30 73.5 30C72.6716 30 72 29.3284 72 28.5C72 27.6716 72.6716 27 73.5 27C74.3284 27 75 27.6716 75 28.5Z" fill="#adcceb"/>
<path d="M84 28.5C84 29.3284 83.3284 30 82.5 30C81.6716 30 81 29.3284 81 28.5C81 27.6716 81.6716 27 82.5 27C83.3284 27 84 27.6716 84 28.5Z" fill="#adcceb"/>
<path d="M93 28.5C93 29.3284 92.3284 30 91.5 30C90.6716 30 90 29.3284 90 28.5C90 27.6716 90.6716 27 91.5 27C92.3284 27 93 27.6716 93 28.5Z" fill="#adcceb"/>
<path d="M102 28.5C102 29.3284 101.328 30 100.5 30C99.6716 30 99 29.3284 99 28.5C99 27.6716 99.6716 27 100.5 27C101.328 27 102 27.6716 102 28.5Z" fill="#adcceb"/>
<path d="M111 28.5C111 29.3284 110.328 30 109.5 30C108.672 30 108 29.3284 108 28.5C108 27.6716 108.672 27 109.5 27C110.328 27 111 27.6716 111 28.5Z" fill="#adcceb"/>
<path d="M120 28.5C120 29.3284 119.328 30 118.5 30C117.672 30 117 29.3284 117 28.5C117 27.6716 117.672 27 118.5 27C119.328 27 120 27.6716 120 28.5Z" fill="#adcceb"/>
<path d="M129 28.5C129 29.3284 128.328 30 127.5 30C126.672 30 126 29.3284 126 28.5C126 27.6716 126.672 27 127.5 27C128.328 27 129 27.6716 129 28.5Z" fill="#adcceb"/>
<path d="M138 28.5C138 29.3284 137.328 30 136.5 30C135.672 30 135 29.3284 135 28.5C135 27.6716 135.672 27 136.5 27C137.328 27 138 27.6716 138 28.5Z" fill="#adcceb"/>
<path d="M75 19.5C75 20.3284 74.3284 21 73.5 21C72.6716 21 72 20.3284 72 19.5C72 18.6716 72.6716 18 73.5 18C74.3284 18 75 18.6716 75 19.5Z" fill="#adcceb"/>
<path d="M84 19.5C84 20.3284 83.3284 21 82.5 21C81.6716 21 81 20.3284 81 19.5C81 18.6716 81.6716 18 82.5 18C83.3284 18 84 18.6716 84 19.5Z" fill="#adcceb"/>
<path d="M93 19.5C93 20.3284 92.3284 21 91.5 21C90.6716 21 90 20.3284 90 19.5C90 18.6716 90.6716 18 91.5 18C92.3284 18 93 18.6716 93 19.5Z" fill="#adcceb"/>
<path d="M102 19.5C102 20.3284 101.328 21 100.5 21C99.6716 21 99 20.3284 99 19.5C99 18.6716 99.6716 18 100.5 18C101.328 18 102 18.6716 102 19.5Z" fill="#adcceb"/>
<path d="M111 19.5C111 20.3284 110.328 21 109.5 21C108.672 21 108 20.3284 108 19.5C108 18.6716 108.672 18 109.5 18C110.328 18 111 18.6716 111 19.5Z" fill="#adcceb"/>
<path d="M120 19.5C120 20.3284 119.328 21 118.5 21C117.672 21 117 20.3284 117 19.5C117 18.6716 117.672 18 118.5 18C119.328 18 120 18.6716 120 19.5Z" fill="#adcceb"/>
<path d="M129 19.5C129 20.3284 128.328 21 127.5 21C126.672 21 126 20.3284 126 19.5C126 18.6716 126.672 18 127.5 18C128.328 18 129 18.6716 129 19.5Z" fill="#adcceb"/>
<path d="M138 19.5C138 20.3284 137.328 21 136.5 21C135.672 21 135 20.3284 135 19.5C135 18.6716 135.672 18 136.5 18C137.328 18 138 18.6716 138 19.5Z" fill="#adcceb"/>
<path d="M75 10.5C75 11.3284 74.3284 12 73.5 12C72.6716 12 72 11.3284 72 10.5C72 9.67157 72.6716 9 73.5 9C74.3284 9 75 9.67157 75 10.5Z" fill="#adcceb"/>
<path d="M84 10.5C84 11.3284 83.3284 12 82.5 12C81.6716 12 81 11.3284 81 10.5C81 9.67157 81.6716 9 82.5 9C83.3284 9 84 9.67157 84 10.5Z" fill="#adcceb"/>
<path d="M93 10.5C93 11.3284 92.3284 12 91.5 12C90.6716 12 90 11.3284 90 10.5C90 9.67157 90.6716 9 91.5 9C92.3284 9 93 9.67157 93 10.5Z" fill="#adcceb"/>
<path d="M102 10.5C102 11.3284 101.328 12 100.5 12C99.6716 12 99 11.3284 99 10.5C99 9.67157 99.6716 9 100.5 9C101.328 9 102 9.67157 102 10.5Z" fill="#adcceb"/>
<path d="M111 10.5C111 11.3284 110.328 12 109.5 12C108.672 12 108 11.3284 108 10.5C108 9.67157 108.672 9 109.5 9C110.328 9 111 9.67157 111 10.5Z" fill="#adcceb"/>
<path d="M120 10.5C120 11.3284 119.328 12 118.5 12C117.672 12 117 11.3284 117 10.5C117 9.67157 117.672 9 118.5 9C119.328 9 120 9.67157 120 10.5Z" fill="#adcceb"/>
<path d="M129 10.5C129 11.3284 128.328 12 127.5 12C126.672 12 126 11.3284 126 10.5C126 9.67157 126.672 9 127.5 9C128.328 9 129 9.67157 129 10.5Z" fill="#adcceb"/>
<path d="M138 10.5C138 11.3284 137.328 12 136.5 12C135.672 12 135 11.3284 135 10.5C135 9.67157 135.672 9 136.5 9C137.328 9 138 9.67157 138 10.5Z" fill="#adcceb"/>
<path d="M75 1.5C75 2.32843 74.3284 3 73.5 3C72.6716 3 72 2.32843 72 1.5C72 0.671573 72.6716 0 73.5 0C74.3284 0 75 0.671573 75 1.5Z" fill="#adcceb"/>
<path d="M84 1.5C84 2.32843 83.3284 3 82.5 3C81.6716 3 81 2.32843 81 1.5C81 0.671573 81.6716 0 82.5 0C83.3284 0 84 0.671573 84 1.5Z" fill="#adcceb"/>
<path d="M93 1.5C93 2.32843 92.3284 3 91.5 3C90.6716 3 90 2.32843 90 1.5C90 0.671573 90.6716 0 91.5 0C92.3284 0 93 0.671573 93 1.5Z" fill="#adcceb"/>
<path d="M102 1.5C102 2.32843 101.328 3 100.5 3C99.6716 3 99 2.32843 99 1.5C99 0.671573 99.6716 0 100.5 0C101.328 0 102 0.671573 102 1.5Z" fill="#adcceb"/>
<path d="M111 1.5C111 2.32843 110.328 3 109.5 3C108.672 3 108 2.32843 108 1.5C108 0.671573 108.672 0 109.5 0C110.328 0 111 0.671573 111 1.5Z" fill="#adcceb"/>
<path d="M120 1.5C120 2.32843 119.328 3 118.5 3C117.672 3 117 2.32843 117 1.5C117 0.671573 117.672 0 118.5 0C119.328 0 120 0.671573 120 1.5Z" fill="#adcceb"/>
<path d="M129 1.5C129 2.32843 128.328 3 127.5 3C126.672 3 126 2.32843 126 1.5C126 0.671573 126.672 0 127.5 0C128.328 0 129 0.671573 129 1.5Z" fill="#adcceb"/>
<path d="M138 1.5C138 2.32843 137.328 3 136.5 3C135.672 3 135 2.32843 135 1.5C135 0.671573 135.672 0 136.5 0C137.328 0 138 0.671573 138 1.5Z" fill="#adcceb"/>
</svg>
