<svg width="13" height="14" viewBox="0 0 13 14" fill="none" xmlns="http://www.w3.org/2000/svg">
<path d="M2.1 5.6V4.2C2.1 3.08609 2.5425 2.0178 3.33015 1.23015C4.1178 0.442499 5.18609 0 6.3 0C7.41391 0 8.4822 0.442499 9.26985 1.23015C10.0575 2.0178 10.5 3.08609 10.5 4.2V5.6H11.2C11.5713 5.6 11.9274 5.7475 12.1899 6.01005C12.4525 6.2726 12.6 6.6287 12.6 7V12.6C12.6 12.9713 12.4525 13.3274 12.1899 13.5899C11.9274 13.8525 11.5713 14 11.2 14H1.4C1.0287 14 0.672601 13.8525 0.410051 13.5899C0.1475 13.3274 0 12.9713 0 12.6V7C0 6.23 0.63 5.6 1.4 5.6H2.1ZM5.6 10.311V11.9H7V10.311C7.2669 10.1569 7.47549 9.91905 7.59343 9.63432C7.71137 9.34959 7.73206 9.0339 7.6523 8.73622C7.57253 8.43853 7.39677 8.17548 7.15227 7.98787C6.90776 7.80026 6.60819 7.69856 6.3 7.69856C5.99181 7.69856 5.69224 7.80026 5.44773 7.98787C5.20323 8.17548 5.02747 8.43853 4.9477 8.73622C4.86794 9.0339 4.88863 9.34959 5.00657 9.63432C5.12451 9.91905 5.3331 10.1569 5.6 10.311ZM4.2 4.2V5.6H8.4V4.2C8.4 3.64305 8.17875 3.1089 7.78492 2.71508C7.3911 2.32125 6.85695 2.1 6.3 2.1C5.74305 2.1 5.2089 2.32125 4.81508 2.71508C4.42125 3.1089 4.2 3.64305 4.2 4.2Z" fill="#657381"/>
</svg>
