<svg width="870" height="218" viewBox="0 0 870 218" fill="none" xmlns="http://www.w3.org/2000/svg">
<g clip-path="url(#clip0)">
<rect width="870" height="218" fill="white"/>
<path d="M217.5 108.75V-0.5H108.75C137.592 -0.5 165.253 11.0102 185.648 31.4986C206.042 51.9869 217.5 79.7751 217.5 108.75V108.75Z" fill="#234970"/>
<path d="M163.125 108.75H217.5C217.5 79.7751 206.042 51.9869 185.648 31.4986C165.253 11.0102 137.592 -0.5 108.75 -0.5V54.125C123.171 54.125 137.002 59.8801 147.199 70.1243C157.396 80.3684 163.125 94.2625 163.125 108.75Z" fill="#385f90"/>
<path d="M108.75 54.125V108.75H163.125C163.125 94.2625 157.396 80.3685 147.199 70.1243C137.002 59.8801 123.171 54.125 108.75 54.125Z" fill="#4576b3"/>
<path d="M0 -0.5V108.75H108.75C79.9077 108.75 52.2467 97.2398 31.8521 76.7514C11.4576 56.2631 0 28.4749 0 -0.5H0Z" fill="#385f90"/>
<path d="M54.375 -0.5H0C0 28.4749 11.4576 56.2631 31.8521 76.7514C52.2467 97.2398 79.9077 108.75 108.75 108.75V54.125C94.3289 54.125 80.4984 48.3699 70.3011 38.1257C60.1038 27.8815 54.375 13.9874 54.375 -0.5Z" fill="#234970"/>
<path d="M108.75 54.125V-0.5H54.375C54.375 13.9874 60.1038 27.8815 70.3011 38.1257C80.4984 48.3699 94.3289 54.125 108.75 54.125Z" fill="#385f90"/>
<path d="M108.75 218H217.5V108.75C217.5 137.725 206.042 165.513 185.648 186.001C165.253 206.49 137.592 218 108.75 218Z" fill="#234970"/>
<path d="M108.75 163.375V218C137.592 218 165.253 206.49 185.648 186.001C206.042 165.513 217.5 137.725 217.5 108.75H163.125C163.125 123.237 157.396 137.132 147.199 147.376C137.002 157.62 123.171 163.375 108.75 163.375Z" fill="#4576b3"/>
<path d="M163.125 108.75H108.75V163.375C123.171 163.375 137.002 157.62 147.199 147.376C157.396 137.132 163.125 123.237 163.125 108.75Z" fill="#234970"/>
<path d="M0 108.75V218H108.75C79.9077 218 52.2467 206.49 31.8521 186.001C11.4576 165.513 0 137.725 0 108.75H0Z" fill="#234970"/>
<path d="M54.375 108.75H0C0 137.725 11.4576 165.513 31.8521 186.001C52.2467 206.49 79.9077 218 108.75 218V163.375C94.3289 163.375 80.4984 157.62 70.3011 147.376C60.1038 137.132 54.375 123.237 54.375 108.75Z" fill="#385f90"/>
<path d="M108.75 163.375V108.75H54.375C54.375 123.237 60.1038 137.132 70.3011 147.376C80.4984 157.62 94.3289 163.375 108.75 163.375Z" fill="#4576b3"/>
<path d="M217.5 108.75H326.25V-0.5C326.25 28.4749 314.792 56.2631 294.398 76.7514C274.003 97.2398 246.342 108.75 217.5 108.75Z" fill="#234970"/>
<path d="M217.5 54.125V108.75C246.342 108.75 274.003 97.2398 294.398 76.7514C314.792 56.2631 326.25 28.4749 326.25 -0.5H271.875C271.875 13.9874 266.146 27.8815 255.949 38.1257C245.752 48.3699 231.921 54.125 217.5 54.125Z" fill="#4576b3"/>
<path d="M271.875 -0.5H217.5V54.125C231.921 54.125 245.752 48.3699 255.949 38.1257C266.146 27.8815 271.875 13.9874 271.875 -0.5Z" fill="#4576b3"/>
<path d="M217.5 108.75V218H326.25C297.408 218 269.747 206.49 249.352 186.001C228.958 165.513 217.5 137.725 217.5 108.75V108.75Z" fill="#234970"/>
<path d="M271.875 108.75H217.5C217.5 137.725 228.958 165.513 249.352 186.001C269.747 206.49 297.408 218 326.25 218V163.375C311.829 163.375 297.998 157.62 287.801 147.376C277.604 137.132 271.875 123.237 271.875 108.75V108.75Z" fill="#385f90"/>
<path d="M326.25 163.375V108.75H271.875C271.875 123.237 277.604 137.132 287.801 147.376C297.998 157.62 311.829 163.375 326.25 163.375Z" fill="#4576b3"/>
<path d="M435 108.75V-0.5H326.25C355.092 -0.5 382.753 11.0102 403.148 31.4986C423.542 51.9869 435 79.7751 435 108.75V108.75Z" fill="#234970"/>
<path d="M380.625 108.75H435C435 79.7751 423.542 51.9869 403.148 31.4986C382.753 11.0102 355.092 -0.5 326.25 -0.5V54.125C340.671 54.125 354.502 59.8801 364.699 70.1243C374.896 80.3684 380.625 94.2625 380.625 108.75V108.75Z" fill="#385f90"/>
<path d="M326.25 54.125V108.75H380.625C380.625 94.2625 374.896 80.3685 364.699 70.1243C354.502 59.8801 340.671 54.125 326.25 54.125Z" fill="#4576b3"/>
<path d="M435 108.75H326.25V218C326.25 189.025 337.708 161.237 358.102 140.749C378.497 120.26 406.158 108.75 435 108.75V108.75Z" fill="#234970"/>
<path d="M435 163.375V108.75C406.158 108.75 378.497 120.26 358.102 140.749C337.708 161.237 326.25 189.025 326.25 218H380.625C380.625 203.513 386.354 189.618 396.551 179.374C406.748 169.13 420.579 163.375 435 163.375V163.375Z" fill="#4576b3"/>
<path d="M380.625 218H435V163.375C420.579 163.375 406.748 169.13 396.551 179.374C386.354 189.618 380.625 203.513 380.625 218V218Z" fill="#385f90"/>
<path d="M435 108.75L543.75 108.75L543.75 218C543.75 189.025 532.292 161.237 511.898 140.749C491.503 120.26 463.842 108.75 435 108.75V108.75Z" fill="#234970"/>
<path d="M435 163.375L435 108.75C463.842 108.75 491.503 120.26 511.898 140.749C532.292 161.237 543.75 189.025 543.75 218L489.375 218C489.375 203.513 483.646 189.618 473.449 179.374C463.252 169.13 449.421 163.375 435 163.375V163.375Z" fill="#385f90"/>
<path d="M489.375 218L435 218L435 163.375C449.421 163.375 463.252 169.13 473.449 179.374C483.646 189.618 489.375 203.513 489.375 218V218Z" fill="#234970"/>
<path d="M652.5 -0.50001L543.75 -0.5L543.75 108.75C543.75 79.7751 555.208 51.9869 575.602 31.4986C595.997 11.0102 623.658 -0.500007 652.5 -0.50001Z" fill="#234970"/>
<path d="M652.5 54.125L652.5 -0.50001C623.658 -0.500007 595.997 11.0102 575.602 31.4986C555.208 51.9869 543.75 79.7751 543.75 108.75L598.125 108.75C598.125 94.2625 603.854 80.3685 614.051 70.1243C624.248 59.8801 638.079 54.125 652.5 54.125Z" fill="#4576b3"/>
<path d="M598.125 108.75L652.5 108.75L652.5 54.125C638.079 54.125 624.248 59.8801 614.051 70.1243C603.854 80.3685 598.125 94.2626 598.125 108.75Z" fill="#234970"/>
<path d="M761.25 108.75L761.25 218L652.5 218C681.342 218 709.003 206.49 729.398 186.001C749.792 165.513 761.25 137.725 761.25 108.75Z" fill="#4576b3"/>
<path d="M706.875 108.75L761.25 108.75C761.25 137.725 749.792 165.513 729.398 186.001C709.003 206.49 681.342 218 652.5 218L652.5 163.375C666.921 163.375 680.752 157.62 690.949 147.376C701.146 137.132 706.875 123.237 706.875 108.75Z" fill="#234970"/>
<path d="M652.5 163.375L652.5 108.75L706.875 108.75C706.875 123.237 701.146 137.132 690.949 147.376C680.752 157.62 666.921 163.375 652.5 163.375V163.375Z" fill="#4576b3"/>
<path d="M652.5 218L543.75 218L543.75 108.75C543.75 137.725 555.208 165.513 575.602 186.001C595.997 206.49 623.658 218 652.5 218V218Z" fill="#4576b3"/>
<path d="M652.5 163.375L652.5 218C623.658 218 595.997 206.49 575.602 186.001C555.208 165.513 543.75 137.725 543.75 108.75L598.125 108.75C598.125 123.237 603.854 137.132 614.051 147.376C624.248 157.62 638.079 163.375 652.5 163.375V163.375Z" fill="#385f90"/>
<path d="M598.125 108.75L652.5 108.75L652.5 163.375C638.079 163.375 624.248 157.62 614.051 147.376C603.854 137.132 598.125 123.237 598.125 108.75V108.75Z" fill="#234970"/>
<path d="M543.75 108.75L435 108.75L435 -0.5C435 28.4749 446.458 56.2631 466.852 76.7514C487.247 97.2398 514.908 108.75 543.75 108.75V108.75Z" fill="#4576b3"/>
<path d="M543.75 54.125L543.75 108.75C514.908 108.75 487.247 97.2398 466.852 76.7514C446.458 56.2631 435 28.4749 435 -0.5L489.375 -0.500005C489.375 13.9874 495.104 27.8815 505.301 38.1257C515.498 48.3699 529.329 54.125 543.75 54.125V54.125Z" fill="#234970"/>
<path d="M489.375 -0.5L543.75 -0.500005L543.75 54.125C529.329 54.125 515.498 48.3699 505.301 38.1257C495.104 27.8815 489.375 13.9874 489.375 -0.5V-0.5Z" fill="#4576b3"/>
<path d="M761.25 108.75L652.5 108.75L652.5 -0.5C652.5 28.4749 663.958 56.2631 684.352 76.7514C704.747 97.2398 732.408 108.75 761.25 108.75V108.75Z" fill="#4576b3"/>
<path d="M761.25 54.125L761.25 108.75C732.408 108.75 704.747 97.2398 684.352 76.7514C663.958 56.2631 652.5 28.4749 652.5 -0.5L706.875 -0.500005C706.875 13.9874 712.604 27.8815 722.801 38.1257C732.998 48.3699 746.829 54.125 761.25 54.125V54.125Z" fill="#385f90"/>
<path d="M706.875 -0.5L761.25 -0.500005L761.25 54.125C746.829 54.125 732.998 48.3699 722.801 38.1257C712.604 27.8815 706.875 13.9874 706.875 -0.5V-0.5Z" fill="#385f90"/>
<path d="M870 108.75L870 218L761.25 218C790.092 218 817.753 206.49 838.148 186.001C858.542 165.513 870 137.725 870 108.75Z" fill="#234970"/>
<path d="M815.625 108.75L870 108.75C870 137.725 858.542 165.513 838.148 186.001C817.753 206.49 790.092 218 761.25 218L761.25 163.375C775.671 163.375 789.502 157.62 799.699 147.376C809.896 137.132 815.625 123.237 815.625 108.75V108.75Z" fill="#385f90"/>
<path d="M761.25 163.375L761.25 108.75L815.625 108.75C815.625 123.237 809.896 137.132 799.699 147.376C789.502 157.62 775.671 163.375 761.25 163.375V163.375Z" fill="#385f90"/>
<path d="M761.25 108.75L761.25 -0.5L870 -0.50001C841.158 -0.500007 813.497 11.0102 793.102 31.4986C772.708 51.9869 761.25 79.7751 761.25 108.75V108.75Z" fill="#4576b3"/>
<path d="M815.625 108.75L761.25 108.75C761.25 79.7751 772.708 51.9869 793.102 31.4986C813.497 11.0102 841.158 -0.500007 870 -0.50001L870 54.125C855.579 54.125 841.748 59.8801 831.551 70.1243C821.354 80.3685 815.625 94.2625 815.625 108.75V108.75Z" fill="#234970"/>
<path d="M870 54.125L870 108.75L815.625 108.75C815.625 94.2626 821.354 80.3685 831.551 70.1243C841.748 59.8801 855.579 54.125 870 54.125Z" fill="#4576b3"/>
</g>
<defs>
<clipPath id="clip0">
<rect width="870" height="218" fill="white"/>
</clipPath>
</defs>
</svg>
