<svg xmlns="http://www.w3.org/2000/svg" viewBox="0 0 22.89 22.93"><defs><style>.cls-1,.cls-2{fill:#4d7fb3;}.cls-1,.cls-3{stroke:#2a526f;}.cls-3{fill:none;stroke-linecap:round;stroke-linejoin:round;stroke-width:2px;}</style></defs><title>Asset 1</title><g id="Layer_2" data-name="Layer 2"><g id="Layer_1-2" data-name="Layer 1"><path class="cls-1" d="M20.5,17v3.5l-1.5,1L15,21l-4-2L7,16.5l-3-3-2-5-1-5L3,2H6.5L8,4l.5,4-1,1.5V11L11,14.5l2.5,1,3-1.5,3,1Z"/><path class="cls-2" d="M20.89,16.92v3a2.06,2.06,0,0,1-.17.81,2,2,0,0,1-.48.67,2.05,2.05,0,0,1-.71.42,1.91,1.91,0,0,1-.82.1,19.79,19.79,0,0,1-8.63-3.07,19.41,19.41,0,0,1-6-6A19.82,19.82,0,0,1,1,4.18a2.05,2.05,0,0,1,.09-.82,2.22,2.22,0,0,1,.42-.71,2.11,2.11,0,0,1,.67-.48A2.06,2.06,0,0,1,3,2H6a2.06,2.06,0,0,1,1.32.48A2,2,0,0,1,8,3.72a12.44,12.44,0,0,0,.7,2.81,2,2,0,0,1,.08,1.12,2,2,0,0,1-.53,1L7,9.91a15.93,15.93,0,0,0,6,6l1.27-1.27a2,2,0,0,1,1-.53,2,2,0,0,1,1.12.08,13,13,0,0,0,2.81.7,2,2,0,0,1,1.24.69A2,2,0,0,1,20.89,16.92Z"/><path class="cls-3" d="M13.94,5a5,5,0,0,1,4,3.95M13.94,1a9,9,0,0,1,8,7.94m-1,8v3a2.06,2.06,0,0,1-.17.81,2,2,0,0,1-.48.67,2.05,2.05,0,0,1-.71.42,1.91,1.91,0,0,1-.82.1,19.79,19.79,0,0,1-8.63-3.07,19.41,19.41,0,0,1-6-6A19.82,19.82,0,0,1,1,4.18a2.05,2.05,0,0,1,.09-.82,2.22,2.22,0,0,1,.42-.71,2.11,2.11,0,0,1,.67-.48A2.06,2.06,0,0,1,3,2H6a2.06,2.06,0,0,1,1.32.48A2,2,0,0,1,8,3.72a12.44,12.44,0,0,0,.7,2.81,2,2,0,0,1,.08,1.12,2,2,0,0,1-.53,1L7,9.91a15.93,15.93,0,0,0,6,6l1.27-1.27a2,2,0,0,1,1-.53,2,2,0,0,1,1.12.08,13,13,0,0,0,2.81.7,2,2,0,0,1,1.24.69A2,2,0,0,1,20.89,16.92Z"/></g></g></svg>
