<svg xmlns="http://www.w3.org/2000/svg" viewBox="0 0 22.89 22.93"><defs><style>.cls-1{fill:#6698cc;}</style></defs><title>Asset 1</title><g id="Layer_2" data-name="Layer 2"><g id="Layer_1-2" data-name="Layer 1"><path class="cls-1" d="M18.89,22.93h-.27a20.92,20.92,0,0,1-9.09-3.23,20.8,20.8,0,0,1-6.3-6.3A21,21,0,0,1,0,4.29,2.93,2.93,0,0,1,.16,3,2.91,2.91,0,0,1,.78,2a3,3,0,0,1,1-.72A3,3,0,0,1,3,1H6a2.86,2.86,0,0,1,2,.73A2.94,2.94,0,0,1,9,3.58a12.2,12.2,0,0,0,.64,2.6,2.93,2.93,0,0,1,.13,1.68A3,3,0,0,1,9,9.34l-.72.72a15,15,0,0,0,4.58,4.59l.72-.72a3,3,0,0,1,3.17-.68,11.71,11.71,0,0,0,2.59.65,3,3,0,0,1,1.88,1,3,3,0,0,1,.71,2v3a3.16,3.16,0,0,1-.25,1.21,3.12,3.12,0,0,1-.72,1,3.06,3.06,0,0,1-1.07.63A2.85,2.85,0,0,1,18.89,22.93ZM6,3H3a.9.9,0,0,0-.4.09.88.88,0,0,0-.34.24,1.13,1.13,0,0,0-.21.35,1.13,1.13,0,0,0,0,.41,18.87,18.87,0,0,0,2.92,8.22A18.75,18.75,0,0,0,10.61,18a19,19,0,0,0,8.21,2.92,1.39,1.39,0,0,0,.39-.05,1.13,1.13,0,0,0,.36-.22.86.86,0,0,0,.23-.33,1,1,0,0,0,.09-.4v-3a1,1,0,0,0-.24-.67,1,1,0,0,0-.62-.34,13.9,13.9,0,0,1-3-.75,1,1,0,0,0-.56-.05,1.06,1.06,0,0,0-.5.27l-1.26,1.27a1,1,0,0,1-1.21.16A17,17,0,0,1,6.11,10.4a1,1,0,0,1,.16-1.2L7.54,7.93a1,1,0,0,0,.22-1,13.85,13.85,0,0,1-.75-3,1.07,1.07,0,0,0-.34-.61A1,1,0,0,0,6,3Zm11.87,7a1,1,0,0,1-1-.81,4.07,4.07,0,0,0-1.1-2.06A4,4,0,0,0,13.75,6a1,1,0,0,1,.38-2,6,6,0,0,1,4.74,4.74,1,1,0,0,1-.79,1.17Zm4,0a1,1,0,0,1-1-.89A8,8,0,0,0,13.83,2a1,1,0,1,1,.22-2,10,10,0,0,1,8.83,8.82A1,1,0,0,1,22,9.93Z"/></g></g></svg>
