<svg width="500" height="498" viewBox="0 0 500 498" fill="none" xmlns="http://www.w3.org/2000/svg">
<path opacity="0.1"
      d="M220 110C220 170.751 170.751 220 110 220C49.2487 220 0 170.751 0 110C0 49.2487 49.2487 0 110 0C170.751 0 220 49.2487 220 110Z" fill="url(#paint0_linear)"/>
<path opacity="0.1"
      d="M280 388C280 327.249 329.249 278 390 278C450.751 278 500 327.249 500 388C500 448.751 450.751 498 390 498C329.249 498 280 448.751 280 388Z" fill="url(#paint1_linear)"/>
<path opacity="0.1"
      d="M500 110C500 170.751 450.751 220 390 220C329.249 220 280 170.751 280 110C280 49.2487 329.249 0 390 0C450.751 0 500 49.2487 500 110Z" fill="url(#paint2_linear)"/>
<path opacity="0.1"
      d="M9.61651e-06 388C1.49276e-05 327.249 49.2487 278 110 278C170.751 278 220 327.249 220 388C220 448.751 170.751 498 110 498C49.2487 498 4.30546e-06 448.751 9.61651e-06 388Z" fill="url(#paint3_linear)"/>
<path d="M74.9063 107.674C74.9063 103.296 71.8043 100.084 67.4043 100.084C63.0043 100.084 59.9023 103.296 59.9023 107.674C59.9023 112.052 63.0043 115.264 67.4043 115.264C68.7903 115.264 70.0443 114.956 71.1003 114.384L72.3763 115.814L74.1583 114.318L72.9483 112.954C74.1803 111.612 74.9063 109.786 74.9063 107.674ZM67.4043 112.976C64.4343 112.976 62.5423 110.688 62.5423 107.674C62.5423 104.638 64.4343 102.372 67.4043 102.372C70.3523 102.372 72.2663 104.638 72.2663 107.674C72.2663 108.972 71.9143 110.138 71.2763 111.04L69.4503 108.994L67.6683 110.468L69.4943 112.536C68.8783 112.822 68.1743 112.976 67.4043 112.976Z" fill="white"/>
<path d="M84.4906 115H86.8006V104.374H84.4906V111.832C83.9406 112.558 82.9286 113.218 81.7626 113.218C80.4646 113.218 79.6286 112.712 79.6286 111.062V104.374H77.3186V111.898C77.3186 114.076 78.4406 115.264 80.7286 115.264C82.4006 115.264 83.7206 114.45 84.4906 113.592V115Z" fill="white"/>
<path d="M96.291 115H98.601V107.96C98.601 105.1 96.533 104.11 94.179 104.11C92.485 104.11 90.945 104.66 89.713 105.826L90.659 107.432C91.583 106.53 92.617 106.09 93.805 106.09C95.279 106.09 96.291 106.838 96.291 108.07V109.654C95.521 108.752 94.289 108.29 92.859 108.29C91.121 108.29 89.163 109.302 89.163 111.744C89.163 114.098 91.121 115.264 92.859 115.264C94.267 115.264 95.499 114.758 96.291 113.856V115ZM96.291 112.58C95.763 113.306 94.773 113.68 93.761 113.68C92.463 113.68 91.495 112.932 91.495 111.788C91.495 110.622 92.463 109.874 93.761 109.874C94.773 109.874 95.763 110.248 96.291 110.974V112.58Z" fill="white"/>
<path d="M101.596 115H103.906V100.326H101.596V115Z" fill="white"/>
<path d="M108.047 102.746C108.839 102.746 109.477 102.108 109.477 101.316C109.477 100.524 108.839 99.886 108.047 99.886C107.277 99.886 106.617 100.524 106.617 101.316C106.617 102.108 107.277 102.746 108.047 102.746ZM106.903 115H109.213V104.374H106.903V115Z" fill="white"/>
<path d="M119.689 115H121.999V100.326H119.689V105.848C118.831 104.726 117.599 104.11 116.279 104.11C113.529 104.11 111.549 106.266 111.549 109.698C111.549 113.196 113.551 115.264 116.279 115.264C117.643 115.264 118.875 114.604 119.689 113.548V115ZM119.689 111.81C119.161 112.602 118.039 113.218 116.939 113.218C115.113 113.218 113.947 111.744 113.947 109.698C113.947 107.63 115.113 106.156 116.939 106.156C118.039 106.156 119.161 106.794 119.689 107.586V111.81Z" fill="white"/>
<path d="M131.482 115H133.792V107.96C133.792 105.1 131.724 104.11 129.37 104.11C127.676 104.11 126.136 104.66 124.904 105.826L125.85 107.432C126.774 106.53 127.808 106.09 128.996 106.09C130.47 106.09 131.482 106.838 131.482 108.07V109.654C130.712 108.752 129.48 108.29 128.05 108.29C126.312 108.29 124.354 109.302 124.354 111.744C124.354 114.098 126.312 115.264 128.05 115.264C129.458 115.264 130.69 114.758 131.482 113.856V115ZM131.482 112.58C130.954 113.306 129.964 113.68 128.952 113.68C127.654 113.68 126.686 112.932 126.686 111.788C126.686 110.622 127.654 109.874 128.952 109.874C129.964 109.874 130.954 110.248 131.482 110.974V112.58Z" fill="white"/>
<path d="M144.267 115H146.577V100.326H144.267V105.848C143.409 104.726 142.177 104.11 140.857 104.11C138.107 104.11 136.127 106.266 136.127 109.698C136.127 113.196 138.129 115.264 140.857 115.264C142.221 115.264 143.453 114.604 144.267 113.548V115ZM144.267 111.81C143.739 112.602 142.617 113.218 141.517 113.218C139.691 113.218 138.525 111.744 138.525 109.698C138.525 107.63 139.691 106.156 141.517 106.156C142.617 106.156 143.739 106.794 144.267 107.586V111.81Z" fill="white"/>
<path d="M148.911 109.676C148.911 113.042 151.287 115.264 154.477 115.264C156.171 115.264 157.733 114.736 158.789 113.724L157.733 112.206C156.985 112.954 155.753 113.372 154.719 113.372C152.717 113.372 151.507 112.052 151.331 110.446H159.537V109.896C159.537 106.552 157.491 104.11 154.301 104.11C151.155 104.11 148.911 106.596 148.911 109.676ZM154.301 106.002C156.391 106.002 157.249 107.564 157.293 108.818H151.309C151.419 107.52 152.321 106.002 154.301 106.002Z" fill="white"/>
<path d="M326.061 115H328.635V102.592H333.079V100.326H321.617V102.592H326.061V115Z" fill="white"/>
<path d="M333.54 115H335.85V107.762C336.312 107.014 337.61 106.354 338.578 106.354C338.864 106.354 339.106 106.376 339.304 106.42V104.132C337.918 104.132 336.642 104.924 335.85 105.936V104.374H333.54V115Z" fill="white"/>
<path d="M347.657 115H349.967V107.96C349.967 105.1 347.899 104.11 345.545 104.11C343.851 104.11 342.311 104.66 341.079 105.826L342.025 107.432C342.949 106.53 343.983 106.09 345.171 106.09C346.645 106.09 347.657 106.838 347.657 108.07V109.654C346.887 108.752 345.655 108.29 344.225 108.29C342.487 108.29 340.529 109.302 340.529 111.744C340.529 114.098 342.487 115.264 344.225 115.264C345.633 115.264 346.865 114.758 347.657 113.856V115ZM347.657 112.58C347.129 113.306 346.139 113.68 345.127 113.68C343.829 113.68 342.861 112.932 342.861 111.788C342.861 110.622 343.829 109.874 345.127 109.874C346.139 109.874 347.129 110.248 347.657 110.974V112.58Z" fill="white"/>
<path d="M360.134 115H362.444V107.52C362.444 105.342 361.3 104.11 359.012 104.11C357.34 104.11 355.976 104.99 355.272 105.826V104.374H352.962V115H355.272V107.586C355.8 106.86 356.812 106.156 358 106.156C359.298 106.156 360.134 106.706 360.134 108.356V115Z" fill="white"/>
<path d="M364.52 113.614C365.62 114.692 367.27 115.264 369.074 115.264C371.934 115.264 373.496 113.834 373.496 111.964C373.496 109.456 371.23 108.928 369.382 108.532C368.128 108.246 367.072 107.96 367.072 107.146C367.072 106.398 367.842 105.958 369.052 105.958C370.372 105.958 371.56 106.508 372.198 107.234L373.166 105.606C372.198 104.748 370.834 104.11 369.03 104.11C366.346 104.11 364.85 105.606 364.85 107.344C364.85 109.72 367.028 110.204 368.854 110.6C370.152 110.886 371.274 111.216 371.274 112.14C371.274 112.932 370.57 113.438 369.184 113.438C367.798 113.438 366.324 112.712 365.576 111.942L364.52 113.614Z" fill="white"/>
<path d="M378.131 119.048V113.526C378.989 114.67 380.199 115.264 381.541 115.264C384.291 115.264 386.249 113.174 386.249 109.676C386.249 106.178 384.291 104.11 381.541 104.11C380.155 104.11 378.923 104.77 378.131 105.826V104.374H375.821V119.048H378.131ZM383.851 109.676C383.851 111.744 382.685 113.218 380.859 113.218C379.781 113.218 378.637 112.558 378.131 111.788V107.586C378.637 106.794 379.781 106.156 380.859 106.156C382.685 106.156 383.851 107.63 383.851 109.676Z" fill="white"/>
<path d="M395.073 115H397.383V107.96C397.383 105.1 395.315 104.11 392.961 104.11C391.267 104.11 389.727 104.66 388.495 105.826L389.441 107.432C390.365 106.53 391.399 106.09 392.587 106.09C394.061 106.09 395.073 106.838 395.073 108.07V109.654C394.303 108.752 393.071 108.29 391.641 108.29C389.903 108.29 387.945 109.302 387.945 111.744C387.945 114.098 389.903 115.264 391.641 115.264C393.049 115.264 394.281 114.758 395.073 113.856V115ZM395.073 112.58C394.545 113.306 393.555 113.68 392.543 113.68C391.245 113.68 390.277 112.932 390.277 111.788C390.277 110.622 391.245 109.874 392.543 109.874C393.555 109.874 394.545 110.248 395.073 110.974V112.58Z" fill="white"/>
<path d="M400.378 115H402.688V107.762C403.15 107.014 404.448 106.354 405.416 106.354C405.702 106.354 405.944 106.376 406.142 106.42V104.132C404.756 104.132 403.48 104.924 402.688 105.936V104.374H400.378V115Z" fill="white"/>
<path d="M414.429 102.768H415.903L413.791 99.6001H411.679L409.633 102.768H411.085L412.735 100.656L414.429 102.768ZM407.345 109.676C407.345 113.042 409.721 115.264 412.911 115.264C414.605 115.264 416.167 114.736 417.223 113.724L416.167 112.206C415.419 112.954 414.187 113.372 413.153 113.372C411.151 113.372 409.941 112.052 409.765 110.446H417.971V109.896C417.971 106.552 415.925 104.11 412.735 104.11C409.589 104.11 407.345 106.596 407.345 109.676ZM412.735 106.002C414.825 106.002 415.683 107.564 415.727 108.818H409.743C409.853 107.52 410.755 106.002 412.735 106.002Z" fill="white"/>
<path d="M427.423 115H429.733V107.52C429.733 105.342 428.589 104.11 426.301 104.11C424.629 104.11 423.265 104.99 422.561 105.826V104.374H420.251V115H422.561V107.586C423.089 106.86 424.101 106.156 425.289 106.156C426.587 106.156 427.423 106.706 427.423 108.356V115Z" fill="white"/>
<path d="M432.074 109.676C432.074 112.91 434.34 115.264 437.574 115.264C439.642 115.264 440.896 114.384 441.644 113.372L440.126 111.964C439.532 112.778 438.718 113.218 437.684 113.218C435.748 113.218 434.472 111.744 434.472 109.676C434.472 107.608 435.748 106.156 437.684 106.156C438.718 106.156 439.532 106.574 440.126 107.41L441.644 106.002C440.896 104.99 439.642 104.11 437.574 104.11C434.34 104.11 432.074 106.464 432.074 109.676Z" fill="white"/>
<path d="M444.813 102.746C445.605 102.746 446.243 102.108 446.243 101.316C446.243 100.524 445.605 99.8861 444.813 99.8861C444.043 99.8861 443.383 100.524 443.383 101.316C443.383 102.108 444.043 102.746 444.813 102.746ZM443.669 115H445.979V104.374H443.669V115Z" fill="white"/>
<path d="M455.466 115H457.776V107.96C457.776 105.1 455.708 104.11 453.354 104.11C451.66 104.11 450.12 104.66 448.888 105.826L449.834 107.432C450.758 106.53 451.792 106.09 452.98 106.09C454.454 106.09 455.466 106.838 455.466 108.07V109.654C454.696 108.752 453.464 108.29 452.034 108.29C450.296 108.29 448.338 109.302 448.338 111.744C448.338 114.098 450.296 115.264 452.034 115.264C453.442 115.264 454.674 114.758 455.466 113.856V115ZM455.466 112.58C454.938 113.306 453.948 113.68 452.936 113.68C451.638 113.68 450.67 112.932 450.67 111.788C450.67 110.622 451.638 109.874 452.936 109.874C453.948 109.874 454.938 110.248 455.466 110.974V112.58Z" fill="white"/>
<path d="M340.617 392.932C341.915 394.318 343.873 395.264 346.579 395.264C350.539 395.264 352.255 393.174 352.255 390.732C352.255 387.542 349.373 386.794 346.953 386.178C345.215 385.738 343.719 385.364 343.719 384.22C343.719 383.12 344.687 382.394 346.205 382.394C347.745 382.394 349.307 382.922 350.451 384.066L351.925 382.152C350.561 380.832 348.713 380.106 346.425 380.106C343.213 380.106 341.079 381.976 341.079 384.396C341.079 387.498 343.895 388.202 346.293 388.796C348.075 389.258 349.637 389.654 349.637 390.974C349.637 391.942 348.801 392.976 346.689 392.976C344.643 392.976 343.059 392.03 342.047 390.952L340.617 392.932Z" fill="white"/>
<path d="M353.9 389.676C353.9 393.042 356.276 395.264 359.466 395.264C361.16 395.264 362.722 394.736 363.778 393.724L362.722 392.206C361.974 392.954 360.742 393.372 359.708 393.372C357.706 393.372 356.496 392.052 356.32 390.446H364.526V389.896C364.526 386.552 362.48 384.11 359.29 384.11C356.144 384.11 353.9 386.596 353.9 389.676ZM359.29 386.002C361.38 386.002 362.238 387.564 362.282 388.818H356.298C356.408 387.52 357.31 386.002 359.29 386.002Z" fill="white"/>
<path d="M366.806 395H369.116V387.762C369.578 387.014 370.876 386.354 371.844 386.354C372.13 386.354 372.372 386.376 372.57 386.42V384.132C371.184 384.132 369.908 384.924 369.116 385.936V384.374H366.806V395Z" fill="white"/>
<path d="M375.577 382.746C376.369 382.746 377.007 382.108 377.007 381.316C377.007 380.524 376.369 379.886 375.577 379.886C374.807 379.886 374.147 380.524 374.147 381.316C374.147 382.108 374.807 382.746 375.577 382.746ZM374.433 395H376.743V384.374H374.433V395Z" fill="white"/>
<path d="M379.079 389.676C379.079 393.042 381.455 395.264 384.645 395.264C386.339 395.264 387.901 394.736 388.957 393.724L387.901 392.206C387.153 392.954 385.921 393.372 384.887 393.372C382.885 393.372 381.675 392.052 381.499 390.446H389.705V389.896C389.705 386.552 387.659 384.11 384.469 384.11C381.323 384.11 379.079 386.596 379.079 389.676ZM384.469 386.002C386.559 386.002 387.417 387.564 387.461 388.818H381.477C381.587 387.52 382.489 386.002 384.469 386.002Z" fill="white"/>
<path d="M399.465 395H401.775V380.326H399.465V385.848C398.607 384.726 397.375 384.11 396.055 384.11C393.305 384.11 391.325 386.266 391.325 389.698C391.325 393.196 393.327 395.264 396.055 395.264C397.419 395.264 398.651 394.604 399.465 393.548V395ZM399.465 391.81C398.937 392.602 397.815 393.218 396.715 393.218C394.889 393.218 393.723 391.744 393.723 389.698C393.723 387.63 394.889 386.156 396.715 386.156C397.815 386.156 398.937 386.794 399.465 387.586V391.81Z" fill="white"/>
<path d="M411.259 395H413.569V387.96C413.569 385.1 411.501 384.11 409.147 384.11C407.453 384.11 405.913 384.66 404.681 385.826L405.627 387.432C406.551 386.53 407.585 386.09 408.773 386.09C410.247 386.09 411.259 386.838 411.259 388.07V389.654C410.489 388.752 409.257 388.29 407.827 388.29C406.089 388.29 404.131 389.302 404.131 391.744C404.131 394.098 406.089 395.264 407.827 395.264C409.235 395.264 410.467 394.758 411.259 393.856V395ZM411.259 392.58C410.731 393.306 409.741 393.68 408.729 393.68C407.431 393.68 406.463 392.932 406.463 391.788C406.463 390.622 407.431 389.874 408.729 389.874C409.741 389.874 410.731 390.248 411.259 390.974V392.58Z" fill="white"/>
<path d="M424.044 395H426.354V380.326H424.044V385.848C423.186 384.726 421.954 384.11 420.634 384.11C417.884 384.11 415.904 386.266 415.904 389.698C415.904 393.196 417.906 395.264 420.634 395.264C421.998 395.264 423.23 394.604 424.044 393.548V395ZM424.044 391.81C423.516 392.602 422.394 393.218 421.294 393.218C419.468 393.218 418.302 391.744 418.302 389.698C418.302 387.63 419.468 386.156 421.294 386.156C422.394 386.156 423.516 386.794 424.044 387.586V391.81Z" fill="white"/>
<path d="M428.687 389.676C428.687 393.042 431.063 395.264 434.253 395.264C435.947 395.264 437.509 394.736 438.565 393.724L437.509 392.206C436.761 392.954 435.529 393.372 434.495 393.372C432.493 393.372 431.283 392.052 431.107 390.446H439.313V389.896C439.313 386.552 437.267 384.11 434.077 384.11C430.931 384.11 428.687 386.596 428.687 389.676ZM434.077 386.002C436.167 386.002 437.025 387.564 437.069 388.818H431.085C431.195 387.52 432.097 386.002 434.077 386.002Z" fill="white"/>
<path d="M67.5625 395H70.1365V380.326H67.5625V395Z" fill="white"/>
<path d="M80.3619 395H82.6719V387.52C82.6719 385.342 81.5279 384.11 79.2399 384.11C77.5679 384.11 76.2039 384.99 75.4999 385.826V384.374H73.1899V395H75.4999V387.586C76.0279 386.86 77.0399 386.156 78.2279 386.156C79.5259 386.156 80.3619 386.706 80.3619 388.356V395Z" fill="white"/>
<path d="M90.4683 395.264C93.8783 395.264 95.9463 392.734 95.9463 389.676C95.9463 386.64 93.8783 384.11 90.4683 384.11C87.1023 384.11 85.0123 386.64 85.0123 389.676C85.0123 392.734 87.1023 395.264 90.4683 395.264ZM90.4683 393.218C88.5103 393.218 87.4103 391.568 87.4103 389.676C87.4103 387.806 88.5103 386.156 90.4683 386.156C92.4483 386.156 93.5483 387.806 93.5483 389.676C93.5483 391.568 92.4483 393.218 90.4683 393.218Z" fill="white"/>
<path d="M101.078 395H103.564L107.898 384.374H105.412L102.31 392.338L99.2076 384.374H96.7436L101.078 395Z" fill="white"/>
<path d="M115.838 395H118.148V387.96C118.148 385.1 116.08 384.11 113.726 384.11C112.032 384.11 110.492 384.66 109.26 385.826L110.206 387.432C111.13 386.53 112.164 386.09 113.352 386.09C114.826 386.09 115.838 386.838 115.838 388.07V389.654C115.068 388.752 113.836 388.29 112.406 388.29C110.668 388.29 108.71 389.302 108.71 391.744C108.71 394.098 110.668 395.264 112.406 395.264C113.814 395.264 115.046 394.758 115.838 393.856V395ZM115.838 392.58C115.31 393.306 114.32 393.68 113.308 393.68C112.01 393.68 111.042 392.932 111.042 391.788C111.042 390.622 112.01 389.874 113.308 389.874C114.32 389.874 115.31 390.248 115.838 390.974V392.58Z" fill="white"/>
<path d="M126.093 393.218C124.157 393.218 122.881 391.744 122.881 389.676C122.881 387.608 124.157 386.156 126.093 386.156C127.127 386.156 127.941 386.574 128.535 387.41L130.053 386.002C129.305 384.99 128.051 384.11 125.983 384.11C122.749 384.11 120.483 386.464 120.483 389.676C120.483 392.69 122.441 394.934 125.323 395.22L124.817 396.584L125.719 397.09C125.895 396.892 126.181 396.76 126.467 396.76C126.951 396.76 127.193 397.002 127.193 397.376C127.193 397.948 126.599 398.212 125.961 398.212C125.367 398.212 124.729 398.014 124.179 397.574L123.695 398.586C124.135 398.938 125.015 399.268 126.027 399.268C127.325 399.268 128.403 398.564 128.403 397.398C128.403 396.54 127.765 395.924 126.929 395.924C126.643 395.924 126.357 396.012 126.137 396.166L126.511 395.242C128.271 395.11 129.371 394.296 130.053 393.372L128.535 391.964C127.941 392.778 127.127 393.218 126.093 393.218Z" fill="white"/>
<path d="M136.083 381.8C136.457 382.284 136.897 382.812 137.755 382.812C139.229 382.812 140.021 381.668 140.021 379.864H138.745C138.745 380.964 138.349 381.448 137.843 381.448C137.447 381.448 137.183 381.118 136.875 380.744C136.501 380.26 136.083 379.732 135.225 379.732C133.751 379.732 132.959 380.876 132.959 382.68H134.213C134.213 381.58 134.631 381.096 135.137 381.096C135.533 381.096 135.797 381.426 136.083 381.8ZM138.569 395H140.879V387.96C140.879 385.1 138.811 384.11 136.457 384.11C134.763 384.11 133.223 384.66 131.991 385.826L132.937 387.432C133.861 386.53 134.895 386.09 136.083 386.09C137.557 386.09 138.569 386.838 138.569 388.07V389.654C137.799 388.752 136.567 388.29 135.137 388.29C133.399 388.29 131.441 389.302 131.441 391.744C131.441 394.098 133.399 395.264 135.137 395.264C136.545 395.264 137.777 394.758 138.569 393.856V395ZM138.569 392.58C138.041 393.306 137.051 393.68 136.039 393.68C134.741 393.68 133.773 392.932 133.773 391.788C133.773 390.622 134.741 389.874 136.039 389.874C137.051 389.874 138.041 390.248 138.569 390.974V392.58Z" fill="white"/>
<path d="M148.669 395.264C152.079 395.264 154.147 392.734 154.147 389.676C154.147 386.64 152.079 384.11 148.669 384.11C145.303 384.11 143.213 386.64 143.213 389.676C143.213 392.734 145.303 395.264 148.669 395.264ZM148.669 393.218C146.711 393.218 145.611 391.568 145.611 389.676C145.611 387.806 146.711 386.156 148.669 386.156C150.649 386.156 151.749 387.806 151.749 389.676C151.749 391.568 150.649 393.218 148.669 393.218Z" fill="white"/>
<g filter="url(#filter0_dd)">
<path d="M372 244C372 314.692 314.692 372 244 372C173.308 372 116 314.692 116 244C116 173.308 173.308 116 244 116C314.692 116 372 173.308 372 244Z" fill="white"/>
</g>
<path d="M182.03 255.387L158.82 239.299C156.468 237.669 157.268 234.275 160.201 233.477L184.869 226.749C185.391 226.56 185.951 226.498 186.502 226.57C187.053 226.641 187.579 226.844 188.036 227.161C188.494 227.477 188.869 227.899 189.132 228.391C189.395 228.883 189.537 229.431 189.547 229.989L188.085 252.802C187.911 255.51 184.382 257.017 182.03 255.387V255.387Z" fill="#E9327C"/>
<path d="M174.67 259.358L160.996 232.489C160.684 231.874 160.546 231.184 160.599 230.496C160.652 229.808 160.892 229.148 161.295 228.588C161.697 228.029 162.245 227.592 162.879 227.325C163.513 227.059 164.208 226.974 164.887 227.079L190.227 231.009C190.811 231.1 191.364 231.328 191.843 231.675C192.321 232.023 192.711 232.479 192.98 233.008C193.248 233.536 193.388 234.121 193.388 234.714C193.388 235.307 193.248 235.892 192.979 236.42L181.306 259.36C180.992 259.972 180.517 260.487 179.931 260.846C179.346 261.205 178.673 261.395 177.987 261.394C177.302 261.394 176.629 261.204 176.044 260.845C175.459 260.486 174.983 259.971 174.67 259.358V259.358Z" fill="#1DACE3"/>
<path d="M189.485 230.893L176.853 228.934L161.344 233.166L167.534 245.335L182.031 255.387C182.351 255.606 182.702 255.774 183.074 255.885L188.58 245.065L189.485 230.893ZM253.47 234.034C253.47 233.562 253.61 233.101 253.87 232.709C254.131 232.317 254.502 232.011 254.936 231.83C255.37 231.65 255.847 231.603 256.307 231.695C256.768 231.787 257.191 232.014 257.523 232.347C257.855 232.681 258.081 233.106 258.173 233.569C258.264 234.032 258.217 234.511 258.038 234.947C257.858 235.383 257.554 235.756 257.163 236.018C256.773 236.28 256.314 236.42 255.844 236.42C255.217 236.413 254.617 236.16 254.173 235.714C253.729 235.268 253.477 234.665 253.47 234.034V234.034ZM253.866 237.586H257.824V250.838H253.866V237.586ZM274.914 244.212C274.96 245.088 274.833 245.964 274.541 246.791C274.249 247.617 273.797 248.378 273.211 249.028C272.625 249.678 271.917 250.206 271.128 250.58C270.338 250.955 269.483 251.169 268.611 251.21C267.878 251.25 267.144 251.126 266.465 250.846C265.785 250.566 265.175 250.138 264.681 249.593V256.139H260.724V237.586H264.681V238.831C265.176 238.286 265.785 237.858 266.465 237.579C267.145 237.299 267.878 237.175 268.611 237.215C269.483 237.256 270.338 237.47 271.128 237.844C271.917 238.219 272.625 238.746 273.211 239.396C273.797 240.047 274.249 240.807 274.541 241.633C274.833 242.46 274.96 243.336 274.914 244.212ZM270.958 244.212C270.942 243.591 270.745 242.989 270.391 242.481C270.036 241.973 269.541 241.581 268.966 241.354C268.391 241.127 267.762 241.076 267.158 241.207C266.554 241.337 266.002 241.644 265.571 242.089C265.14 242.533 264.848 243.095 264.734 243.705C264.619 244.315 264.686 244.945 264.926 245.517C265.166 246.089 265.568 246.577 266.083 246.92C266.598 247.263 267.202 247.446 267.819 247.446C268.243 247.466 268.667 247.394 269.062 247.238C269.456 247.081 269.814 246.842 270.11 246.536C270.407 246.231 270.635 245.866 270.781 245.465C270.928 245.065 270.988 244.638 270.958 244.212V244.212ZM287.126 246.86C287.126 249.909 284.488 251.207 281.639 251.207C280.488 251.312 279.333 251.067 278.322 250.505C277.311 249.942 276.491 249.088 275.969 248.052L279.397 246.092C279.536 246.57 279.835 246.987 280.243 247.271C280.651 247.555 281.144 247.689 281.639 247.652C282.589 247.652 283.062 247.359 283.062 246.83C283.062 245.372 276.574 246.141 276.574 241.555C276.574 238.666 279 237.209 281.749 237.209C282.78 237.176 283.801 237.422 284.706 237.921C285.61 238.42 286.365 239.153 286.892 240.044L283.516 241.873C283.369 241.525 283.122 241.229 282.808 241.021C282.494 240.813 282.125 240.702 281.749 240.703C281.063 240.703 280.642 240.963 280.642 241.446C280.638 242.967 287.126 241.959 287.126 246.86V246.86ZM301.586 237.586V250.838H297.63V249.59C297.173 250.14 296.593 250.573 295.937 250.854C295.281 251.135 294.568 251.256 293.857 251.207C291.193 251.207 288.925 249.299 288.925 245.72V237.586H292.882V245.14C292.848 245.456 292.884 245.775 292.986 246.076C293.088 246.377 293.254 246.651 293.473 246.881C293.691 247.11 293.957 247.289 294.251 247.405C294.545 247.521 294.861 247.571 295.177 247.552C296.627 247.552 297.635 246.704 297.635 244.822V237.586H301.586ZM324.263 242.7V250.838H320.307V243.046C320.307 241.721 319.673 240.872 318.407 240.872C317.088 240.872 316.35 241.8 316.35 243.364V250.838H312.393V243.046C312.393 241.721 311.76 240.872 310.494 240.872C309.175 240.872 308.436 241.8 308.436 243.364V250.838H304.48V237.586H308.443V238.8C308.853 238.259 309.391 237.831 310.009 237.553C310.626 237.275 311.303 237.157 311.977 237.21C312.655 237.177 313.329 237.32 313.935 237.627C314.54 237.933 315.056 238.392 315.433 238.959C315.872 238.366 316.452 237.895 317.122 237.589C317.791 237.283 318.526 237.153 319.259 237.21C322.286 237.215 324.263 239.388 324.263 242.7Z" fill="#001A49"/>
<path d="M327.615 237.504C329.237 237.504 330.551 236.183 330.551 234.553C330.551 232.923 329.237 231.602 327.615 231.602C325.993 231.602 324.678 232.923 324.678 234.553C324.678 236.183 325.993 237.504 327.615 237.504Z" fill="#001A49"/>
<path d="M199.453 231.49H203.411V250.838H199.453V231.49ZM205.651 244.212C205.647 242.822 206.053 241.463 206.818 240.306C207.583 239.148 208.673 238.245 209.949 237.71C211.225 237.176 212.63 237.034 213.987 237.302C215.344 237.57 216.591 238.237 217.57 239.218C218.549 240.199 219.217 241.45 219.488 242.812C219.759 244.174 219.622 245.587 219.094 246.871C218.566 248.155 217.671 249.253 216.521 250.025C215.372 250.797 214.02 251.21 212.638 251.21C211.719 251.22 210.808 251.045 209.958 250.698C209.107 250.35 208.334 249.835 207.684 249.183C207.033 248.532 206.519 247.757 206.17 246.903C205.821 246.049 205.645 245.135 205.651 244.212V244.212ZM215.675 244.212C215.66 243.612 215.469 243.031 215.126 242.54C214.784 242.049 214.304 241.671 213.749 241.453C213.193 241.234 212.586 241.185 212.003 241.311C211.42 241.438 210.886 241.734 210.47 242.163C210.054 242.593 209.772 243.136 209.662 243.725C209.551 244.314 209.615 244.923 209.847 245.475C210.079 246.028 210.468 246.499 210.965 246.831C211.462 247.162 212.045 247.339 212.642 247.34C213.05 247.351 213.457 247.278 213.836 247.124C214.214 246.97 214.557 246.739 214.843 246.445C215.129 246.151 215.35 245.801 215.495 245.416C215.639 245.032 215.702 244.622 215.681 244.212H215.675ZM235.404 237.582V250.172C235.404 254.625 231.948 256.506 228.441 256.506C227.206 256.6 225.97 256.35 224.867 255.784C223.764 255.218 222.838 254.359 222.189 253.299L225.565 251.337C225.837 251.89 226.271 252.347 226.809 252.645C227.346 252.944 227.962 253.07 228.573 253.008C228.963 253.061 229.36 253.026 229.734 252.905C230.109 252.783 230.452 252.579 230.737 252.307C231.023 252.035 231.244 251.702 231.385 251.332C231.525 250.963 231.581 250.566 231.548 250.172V248.953C231.085 249.522 230.495 249.975 229.826 250.274C229.158 250.573 228.428 250.711 227.697 250.675C225.956 250.621 224.305 249.888 223.092 248.631C221.88 247.375 221.202 245.693 221.202 243.943C221.202 242.193 221.88 240.512 223.092 239.255C224.305 237.999 225.956 237.266 227.697 237.211C228.428 237.176 229.158 237.314 229.826 237.613C230.495 237.912 231.085 238.364 231.548 238.934V237.582H235.404ZM231.554 243.943C231.58 243.303 231.415 242.669 231.08 242.124C230.745 241.579 230.255 241.147 229.674 240.884C229.093 240.621 228.446 240.538 227.818 240.647C227.19 240.756 226.608 241.051 226.148 241.494C225.688 241.938 225.371 242.51 225.237 243.136C225.103 243.762 225.158 244.414 225.396 245.009C225.633 245.603 226.043 246.113 226.571 246.471C227.099 246.83 227.722 247.022 228.359 247.022C228.775 247.052 229.192 246.993 229.584 246.851C229.976 246.709 230.334 246.485 230.635 246.196C230.936 245.906 231.173 245.556 231.331 245.169C231.489 244.781 231.565 244.365 231.554 243.947V243.943ZM237.645 244.203C237.64 242.813 238.046 241.454 238.811 240.297C239.576 239.139 240.666 238.236 241.942 237.701C243.218 237.167 244.624 237.024 245.98 237.293C247.337 237.561 248.584 238.228 249.563 239.209C250.542 240.19 251.21 241.441 251.481 242.803C251.753 244.165 251.615 245.578 251.087 246.862C250.559 248.146 249.664 249.244 248.514 250.016C247.365 250.788 246.014 251.201 244.631 251.201C243.713 251.21 242.803 251.037 241.953 250.689C241.103 250.342 240.33 249.828 239.68 249.178C239.03 248.527 238.515 247.753 238.165 246.9C237.816 246.048 237.639 245.134 237.645 244.212V244.203ZM247.669 244.203C247.653 243.603 247.462 243.021 247.12 242.53C246.777 242.039 246.298 241.66 245.742 241.441C245.186 241.222 244.578 241.173 243.995 241.299C243.411 241.426 242.878 241.722 242.461 242.152C242.044 242.582 241.763 243.125 241.652 243.715C241.541 244.304 241.606 244.913 241.838 245.466C242.07 246.019 242.459 246.49 242.956 246.822C243.454 247.154 244.038 247.331 244.635 247.33C245.042 247.341 245.447 247.268 245.825 247.114C246.202 246.96 246.544 246.729 246.829 246.437C247.114 246.144 247.336 245.795 247.48 245.412C247.624 245.029 247.689 244.621 247.669 244.212V244.203Z" fill="#001A49"/>
<defs>
<filter id="filter0_dd" x="112" y="114" width="264" height="265" filterUnits="userSpaceOnUse" color-interpolation-filters="sRGB">
<feFlood flood-opacity="0" result="BackgroundImageFix"/>
<feColorMatrix in="SourceAlpha" type="matrix" values="0 0 0 0 0 0 0 0 0 0 0 0 0 0 0 0 0 0 127 0"/>
<feOffset/>
<feGaussianBlur stdDeviation="1"/>
<feColorMatrix type="matrix" values="0 0 0 0 0 0 0 0 0 0 0 0 0 0 0 0 0 0 0.15 0"/>
<feBlend mode="normal" in2="BackgroundImageFix" result="effect1_dropShadow"/>
<feColorMatrix in="SourceAlpha" type="matrix" values="0 0 0 0 0 0 0 0 0 0 0 0 0 0 0 0 0 0 127 0"/>
<feOffset dy="3"/>
<feGaussianBlur stdDeviation="2"/>
<feColorMatrix type="matrix" values="0 0 0 0 0 0 0 0 0 0 0 0 0 0 0 0 0 0 0.1 0"/>
<feBlend mode="normal" in2="effect1_dropShadow" result="effect2_dropShadow"/>
<feBlend mode="normal" in="SourceGraphic" in2="effect2_dropShadow" result="shape"/>
</filter>
<linearGradient id="paint0_linear" x1="26.6406" y1="-2.32863e-06" x2="198.516" y2="204.531" gradientUnits="userSpaceOnUse">
<stop stop-color="white"/>
<stop offset="1" stop-color="#F2F6F3" stop-opacity="0"/>
</linearGradient>
<linearGradient id="paint1_linear" x1="473.359" y1="498" x2="301.484" y2="293.469" gradientUnits="userSpaceOnUse">
<stop stop-color="white"/>
<stop offset="1" stop-color="#F2F6F3" stop-opacity="0"/>
</linearGradient>
<linearGradient id="paint2_linear" x1="520.5" y1="17.5" x2="290.5" y2="210.5" gradientUnits="userSpaceOnUse">
<stop stop-color="white"/>
<stop offset="1" stop-color="#F2F6F3" stop-opacity="0"/>
</linearGradient>
<linearGradient id="paint3_linear" x1="-20.5" y1="480.5" x2="209.5" y2="287.5" gradientUnits="userSpaceOnUse">
<stop stop-color="white"/>
<stop offset="1" stop-color="#F2F6F3" stop-opacity="0"/>
</linearGradient>
</defs>
</svg>
