<svg xmlns="http://www.w3.org/2000/svg" viewBox="0 0 20 24"><defs><style>.cls-1{fill:#4d7fb3;fill-rule:evenodd;}.cls-2{fill:#2a526f;}.cls-3{fill:none;stroke:#2a526f;stroke-linecap:round;stroke-linejoin:round;stroke-width:2px;}</style></defs><title>Asset 1</title><g id="Layer_2" data-name="Layer 2"><g id="Layer_1-2" data-name="Layer 1"><path class="cls-1" d="M9.5,22.5,3,16,1,11V7.5L3.5,4l3-2.5,4-.5L15,2.5l2.5,3,1.5,3L18.5,12,16,17l-4.5,4.5ZM8,8.5l1-1h1.5l1,.5,1,1v1c.17.5.4,1.5,0,1.5-.25,0-.25.12-.25.25s0,.25-.25.25-.06.11.07.24.6.59-1.07.26A25.93,25.93,0,0,0,8,12l-.5-.5-.5-1v-1Z"/><path class="cls-2" d="M3,16l-.46.19,0,.09.08.07Zm6.5,6.5-.35.35.25.26L9.72,23ZM1,11H.5v.1l0,.09ZM1,7.5.59,7.21.5,7.34V7.5ZM3.5,4l-.32-.38-.05,0,0,0Zm3-2.5L6.44,1,6.29,1l-.11.1Zm4-.5.16-.47-.11,0h-.11ZM15,2.5l.38-.32-.09-.11-.13,0Zm2.5,3L18,5.28l0-.06,0,0Zm1.5,3,.5.07,0-.15-.07-.14ZM18.5,12l.45.22,0-.07,0-.08ZM16,17l.35.35.06-.05,0-.08Zm-4.5,4.5.22.45.08,0,0-.06ZM9,7.5V7H8.79l-.14.15Zm1.5,0,.22-.45-.1,0H10.5Zm1,.5.35-.35,0-.06-.08,0Zm1,1H13V8.79l-.15-.14Zm0,1H12v.08l0,.08ZM11,12.5l-.1.49ZM8,12l-.35.35.14.15H8Zm-.5-.5-.45.22,0,.08.06,0Zm-.5-1H6.5v.12l0,.1Zm0-1-.35-.35-.15.14V9.5ZM2.65,16.35l6.5,6.5.7-.7-6.5-6.5ZM.54,11.19l2,5,.92-.38-2-5ZM.5,7.5V11h1V7.5ZM3.09,3.71.59,7.21l.82.58,2.5-3.5ZM6.18,1.12l-3,2.5.64.76,3-2.5ZM10.44.5l-4,.5.12,1,4-.5ZM15.16,2,10.66.53l-.32.94L14.84,3Zm2.72,3.15-2.5-3-.76.64,2.5,3Zm1.57,3.1-1.5-3-.9.44,1.5,3ZM19,12.07l.5-3.5-1-.14-.5,3.5Zm-2.55,5.15,2.5-5-.9-.44-2.5,5Zm-4.6,4.63,4.5-4.5-.7-.7-4.5,4.5ZM9.72,23l2-1-.44-.9-2,1ZM8.65,7.15l-1,1,.7.7,1-1ZM10.5,7H9V8h1.5Zm1.22.55-1-.5-.44.9,1,.5Zm1.13,1.1-1-1-.7.7,1,1ZM13,10V9H12v1Zm-.5,2a.73.73,0,0,0,.46-.17.75.75,0,0,0,.21-.34,1.55,1.55,0,0,0,0-.6A4.79,4.79,0,0,0,13,9.84l-.94.32a4.43,4.43,0,0,1,.18.82,1,1,0,0,1,0,.16s0,0,0,0a.17.17,0,0,1,.07-.11A.31.31,0,0,1,12.5,11Zm.25-.25v0a.33.33,0,0,1-.05.14.37.37,0,0,1-.16.13h0V11a.72.72,0,0,0-.63.3.74.74,0,0,0-.12.45ZM12,12.5a.72.72,0,0,0,.63-.3.74.74,0,0,0,.12-.45h-1v0a.33.33,0,0,1,.05-.14.37.37,0,0,1,.16-.13h0Zm.43-.61-.08-.08,0,0a.37.37,0,0,1,0,.17.43.43,0,0,1-.11.34.44.44,0,0,1-.22.14H12v-1a.65.65,0,0,0-.18,0,.56.56,0,0,0-.27.17.54.54,0,0,0-.07.61.84.84,0,0,0,.13.18l.11.11ZM10.9,13a7.93,7.93,0,0,0,1,.15h.33a.66.66,0,0,0,.36-.15.53.53,0,0,0,.21-.51.67.67,0,0,0-.11-.31,2.45,2.45,0,0,0-.24-.27l-.71.7.08.09s0,0,0,0a.08.08,0,0,0,0,0,.29.29,0,0,1,0-.1.38.38,0,0,1,0-.2A.42.42,0,0,1,12,12.2c.08-.06.15-.07.12-.06h-.13A7.07,7.07,0,0,1,11.1,12ZM8,12.5h.05l.15,0,.54.07c.47.08,1.17.2,2.16.4l.2-1c-1-.2-1.72-.33-2.21-.4A6.52,6.52,0,0,0,8,11.5Zm-.85-.65.5.5.7-.7-.5-.5Zm-.6-1.13.5,1,.9-.44-.5-1Zm0-1.22v1h1v-1ZM7.65,8.15l-1,1,.7.7,1-1Z"/><path class="cls-3" d="M19,10c0,7-9,13-9,13S1,17,1,10a9,9,0,0,1,18,0Z"/><path class="cls-3" d="M10,13a3,3,0,1,0-3-3A3,3,0,0,0,10,13Z"/></g></g></svg>
