<svg width="35" height="28" viewBox="0 0 35 28" fill="none" xmlns="http://www.w3.org/2000/svg">
<path opacity="0.5" d="M5.40094 27.9998C10.9209 24.0398 15.2409 17.1998 15.2409 9.87977C15.2409 3.99977 11.6409 0.759766 7.68094 0.759766C4.08094 0.759766 1.32094 3.75977 1.32094 7.23977C1.32094 10.8398 3.72094 13.3598 7.08094 13.3598C7.68094 13.3598 8.52094 13.2398 8.76094 13.1198C8.28094 16.9598 4.80094 21.7598 0.960938 24.2798L5.40094 27.9998ZM24.7209 27.9998C30.1209 24.0398 34.4409 17.1998 34.4409 9.87977C34.4409 3.99977 30.8409 0.759766 26.8809 0.759766C23.4009 0.759766 20.5209 3.75977 20.5209 7.23977C20.5209 10.8398 23.0409 13.3598 26.4009 13.3598C26.8809 13.3598 27.7209 13.2398 27.9609 13.1198C27.4809 16.9598 24.1209 21.7598 20.2809 24.2798L24.7209 27.9998Z" fill="#D1D9E0"/>
</svg>
